<svg xmlns="http://www.w3.org/2000/svg" viewBox="0 0 518.99933 438.2868" height="438.287" width="518.999"><g fill="#000064" fill-rule="evenodd"><path d="M0 225.675l56.716-6.844c2.33 16.088 6.564 27.23 12.698 33.44 6.14 6.209 14.323 9.313 24.551 9.313 13.543 0 24.761-4.589 33.65-13.688 8.889-9.168 13.333-20.881 13.333-35.13 0-12.487-3.6-22.29-10.723-29.56-7.124-7.263-16.788-10.933-28.85-10.933-3.035 0-6.21.28-9.524.845l10.298-49.522c2.115.285 4.09.425 5.994.425 15.803 0 27.866-4.02 36.12-12.133 8.253-8.044 12.348-18.977 12.348-32.805 0-9.804-2.825-17.498-8.394-23.212-5.574-5.639-12.913-8.463-21.942-8.463-8.608 0-16.227 3.104-22.996 9.383-6.704 6.28-12.063 16.933-16.088 32.095L33.015 78.168c6.914-22.297 16.437-39.364 28.71-51.357C80.353 8.964 103.21 0 130.295 0c27.865 0 49.032 7.764 63.49 23.281 14.463 15.523 21.662 34.145 21.662 55.802 0 15.732-4.59 29.91-13.828 42.608-9.244 12.698-21.872 22.012-37.954 27.936 12.768 6.774 22.221 15.522 28.29 26.316 6.064 10.723 9.099 22.006 9.099 33.72 0 22.36-7.904 42.888-23.777 61.655-21.586 25.676-49.522 38.519-83.662 38.519-25.61 0-46.772-7.339-63.35-22.012C13.688 273.222 3.6 252.481 0 225.675zm231.174 78.658L294.664 1.27H519l-10.583 50.792h-162.18l-14.888 68.574h157.176l-10.583 50.792H320.275l-17.917 82.113h176.008l-10.584 50.792z"/><path d="M12.003 356.225h16.513l-9.569 43.843-2.42 10.733c-.13.92-.3 2.1-.524 3.525 0 2.93 1.255 5.349 3.79 7.263 2.529 1.895 6.208 2.85 11.028 2.85 4.334 0 7.918-.75 10.753-2.27 2.834-1.5 5.029-3.754 6.584-6.714 1.54-2.984 3.114-8.048 4.709-15.182l9.229-44.048h16.547l-9.548 45.642c-2.005 8.914-4.335 15.723-6.94 20.452-2.629 4.73-6.603 8.554-11.913 11.518-5.309 2.965-12.048 4.45-20.171 4.45-9.719 0-17.163-2.31-22.327-6.924C2.57 426.749 0 420.819 0 413.576c.075-1.48.26-3.115.54-4.86.17-1.16.83-4.499 1.99-9.998zm127.99 80.597h-15.402l-21.782-54.147-11.333 54.147H76.073l16.888-80.597h15.402L130.2 410.14l11.278-53.916h15.403zm16.248 0l16.887-80.597h16.548l-16.868 80.597zm90.26-28.93l16.663 2.534c-3.25 9.024-8.143 15.928-14.652 20.692-6.494 4.784-14.128 7.169-22.872 7.169-9.833 0-17.522-2.965-23.056-8.914-5.534-5.949-8.314-14.577-8.314-25.89 0-9.174 1.86-17.558 5.574-25.177 3.715-7.619 8.854-13.453 15.458-17.487 6.584-4.034 13.753-6.06 21.501-6.06 8.724 0 15.758 2.346 21.142 7.02 5.384 4.689 8.539 11.048 9.494 19.137l-15.873 1.534c-.88-4.709-2.57-8.103-5.064-10.223-2.495-2.12-5.814-3.17-9.984-3.17-4.554 0-8.813 1.385-12.773 4.185-3.959 2.794-7.114 7.164-9.473 13.113-2.385 5.929-3.565 11.858-3.565 17.787 0 6.47 1.535 11.478 4.615 15.008 3.074 3.524 6.924 5.289 11.498 5.289 4.28 0 8.184-1.39 11.728-4.184 3.565-2.775 6.21-6.904 7.954-12.363zm75.854 11.143h-31.97l-9.758 17.787h-17.183l45.493-80.597h18.742l13.023 80.597H324.98zm-1.99-13.508l-4.784-32.42-17.787 32.42zm76.903 31.295h-15.762l-2.98-67.335-12.778 67.335h-14.952l16.867-80.597h23.636l2.48 55.401 25.346-55.401h23.846l-14.692 80.597H413.25l14.013-66.865zm63.846 0h-16.568l16.887-80.597h32.7c5.835 0 10.434.694 13.808 2.064 3.395 1.37 6.08 3.64 8.049 6.81 1.97 3.169 2.965 6.958 2.965 11.347 0 4.075-.79 8.034-2.365 11.879-1.575 3.864-3.51 6.939-5.8 9.248-2.284 2.31-4.743 4.055-7.388 5.254-2.63 1.18-6.174 2.08-10.658 2.72-2.59.355-7.464.545-14.593.545h-10.603zm9.248-44.238h5.104c8.744 0 14.578-.545 17.503-1.635 2.93-1.085 5.234-2.83 6.923-5.234 1.67-2.4 2.515-5.044 2.515-7.914 0-1.934-.43-3.51-1.295-4.749-.865-1.24-2.064-2.14-3.62-2.7-1.559-.564-5.028-.844-10.413-.844h-11.878z"/></g></svg>