<?xml version="1.0" encoding="UTF-8" standalone="no"?>
<svg
   xmlns:dc="http://purl.org/dc/elements/1.1/"
   xmlns:cc="http://creativecommons.org/ns#"
   xmlns:rdf="http://www.w3.org/1999/02/22-rdf-syntax-ns#"
   xmlns:svg="http://www.w3.org/2000/svg"
   xmlns="http://www.w3.org/2000/svg"
   xmlns:sodipodi="http://sodipodi.sourceforge.net/DTD/sodipodi-0.dtd"
   xmlns:inkscape="http://www.inkscape.org/namespaces/inkscape"
   viewBox="0 0 518.99933 438.2868"
   id="svg17"
   height="438.2868"
   width="518.99933"
   version="1.1"
   inkscape:version="0.91 r13725"
   sodipodi:docname="[3E] Logo.svg">
  <sodipodi:namedview
     pagecolor="#ffffff"
     bordercolor="#666666"
     borderopacity="1"
     objecttolerance="10"
     gridtolerance="10"
     guidetolerance="10"
     inkscape:pageopacity="0"
     inkscape:pageshadow="2"
     inkscape:window-width="847"
     inkscape:window-height="480"
     id="namedview14"
     showgrid="false"
     fit-margin-top="0"
     fit-margin-left="0"
     fit-margin-right="0"
     fit-margin-bottom="0"
     inkscape:zoom="0.28032173"
     inkscape:cx="259.49959"
     inkscape:cy="123.50871"
     inkscape:window-x="0"
     inkscape:window-y="0"
     inkscape:window-maximized="0"
     inkscape:current-layer="svg17" />
  <metadata
     id="metadata23">
    <rdf:RDF>
      <cc:Work
         rdf:about="">
        <dc:format>image/svg+xml</dc:format>
        <dc:type
           rdf:resource="http://purl.org/dc/dcmitype/StillImage" />
        <dc:title></dc:title>
      </cc:Work>
    </rdf:RDF>
  </metadata>
  <defs
     id="defs21" />
  <g
     id="Layer1000"
     transform="translate(-38.1382,-106.1668)">
    <path
       id="path2"
       style="fill:#000064;fill-rule:evenodd"
       d="m 38.1382,331.8417 56.7162,-6.8439 c 2.3296,16.0875 6.5639,27.2308 12.698,33.4398 6.139,6.209 14.3228,9.3135 24.5512,9.3135 13.5429,0 24.7611,-4.5892 33.6497,-13.6878 8.8887,-9.1686 13.333,-20.8818 13.333,-35.1296 0,-12.488 -3.5995,-22.2915 -10.7234,-29.5604 -7.1239,-7.2638 -16.7874,-10.9333 -28.8505,-10.9333 -3.0345,0 -6.209,0.28 -9.5235,0.8449 l 10.2984,-49.5223 c 2.1147,0.285 4.0894,0.4249 5.9941,0.4249 15.8025,0 27.8656,-4.0193 36.1194,-12.1331 8.2537,-8.0437 12.348,-18.977 12.348,-32.8049 0,-9.8034 -2.8245,-17.4973 -8.3937,-23.2114 -5.5741,-5.6391 -12.913,-8.4636 -21.9415,-8.4636 -8.6087,0 -16.2275,3.1045 -22.9965,9.3835 -6.7039,6.279 -12.0631,16.9324 -16.0875,32.095 L 71.1531,184.3347 c 6.9139,-22.2966 16.4374,-39.3639 28.7105,-51.357 18.6271,-17.8473 41.4835,-26.8109 68.5693,-26.8109 27.8657,0 49.0324,7.7638 63.4902,23.2814 14.4627,15.5226 21.6616,34.1447 21.6616,55.8013 0,15.7326 -4.5893,29.9104 -13.8279,42.6084 -9.2435,12.698 -21.8716,22.0116 -37.9541,27.9357 12.7681,6.7739 22.2216,15.5225 28.2906,26.3159 6.0641,10.7233 9.0986,22.0065 9.0986,33.7197 0,22.3615 -7.9037,42.8884 -23.7763,61.6554 -21.5866,25.676 -49.5223,38.519 -83.662,38.519 -25.611,0 -46.7727,-7.3388 -63.3501,-22.0115 C 51.8261,379.3893 41.7376,358.6476 38.1382,331.8417 Z m 231.174,78.6578 63.4902,-303.0629 224.3351,0 -10.5834,50.7921 -162.1798,0 -14.8876,68.5744 157.1755,0 -10.5833,50.7921 -157.6655,0 -17.9172,82.1122 176.0076,0 -10.5834,50.7921 z"
       inkscape:connector-curvature="0" />
    <path
       id="path4"
       style="fill:#000064;fill-rule:evenodd"
       d="m 50.1416,462.3914 16.5124,0 -9.5685,43.8432 -2.4196,10.7333 c -0.13,0.9199 -0.3,2.0997 -0.5249,3.5245 0,2.9295 1.2548,5.3491 3.7894,7.2638 2.5296,1.8947 6.209,2.8496 11.0283,2.8496 4.3343,0 7.9187,-0.7499 10.7533,-2.2697 2.8345,-1.4997 5.0292,-3.7544 6.584,-6.7139 1.5397,-2.9846 3.1145,-8.0488 4.7092,-15.1827 l 9.2286,-44.0481 16.5474,0 -9.5485,45.6429 c -2.0047,8.9136 -4.3343,15.7225 -6.9389,20.4518 -2.6296,4.7293 -6.604,8.5537 -11.9132,11.5182 -5.3091,2.9646 -12.0481,4.4493 -20.1718,4.4493 -9.7185,0 -17.1624,-2.3096 -22.3265,-6.9239 -5.1742,-4.6143 -7.7438,-10.5434 -7.7438,-17.7872 0.0749,-1.4798 0.2599,-3.1145 0.5399,-4.8593 0.1699,-1.1598 0.8298,-4.4993 1.9897,-9.9984 z m 127.9901,80.5975 -15.4026,0 -21.7816,-54.1466 -11.3333,54.1466 -15.4026,0 16.8874,-80.5975 15.4026,0 21.8366,53.9166 11.2782,-53.9166 15.4026,0 z m 16.2474,0 16.8874,-80.5975 16.5474,0 -16.8673,80.5975 z m 90.261,-28.9305 16.6624,2.5346 c -3.2495,9.0236 -8.1437,15.9275 -14.6527,20.6917 -6.494,4.7843 -14.1278,7.1689 -22.8715,7.1689 -9.8334,0 -17.5222,-2.9645 -23.0564,-8.9136 -5.5341,-5.9491 -8.3137,-14.5777 -8.3137,-25.891 0,-9.1735 1.8597,-17.5572 5.5742,-25.176 3.7144,-7.6189 8.8536,-13.4529 15.4576,-17.4873 6.5839,-4.0344 13.7528,-6.0591 21.5016,-6.0591 8.7237,0 15.7576,2.3447 21.1417,7.0189 5.3842,4.6893 8.5387,11.0483 9.4935,19.1371 l -15.8725,1.5347 c -0.8798,-4.7093 -2.5696,-8.1037 -5.0642,-10.2234 -2.4946,-2.1197 -5.8141,-3.1695 -9.9834,-3.1695 -4.5543,0 -8.8137,1.3848 -12.7731,4.1843 -3.9593,2.7946 -7.1139,7.1639 -9.4735,13.113 -2.3846,5.9291 -3.5644,11.8582 -3.5644,17.7872 0,6.469 1.5347,11.4783 4.6143,15.0077 3.0745,3.5245 6.9239,5.2892 11.4982,5.2892 4.2793,0 8.1837,-1.3898 11.7281,-4.1844 3.5645,-2.7745 6.2091,-6.9039 7.9538,-12.363 z m 75.8532,11.1432 -31.97,0 -9.7585,17.7873 -17.1823,0 45.4929,-80.5975 18.7421,0 13.0229,80.5975 -15.7225,0 z m -1.9897,-13.5079 -4.7842,-32.4199 -17.7873,32.4199 z m 76.903,31.2952 -15.7625,0 -2.9795,-67.3346 -12.7781,67.3346 -14.9526,0 16.8673,-80.5975 23.6364,0 2.4796,55.4014 25.346,-55.4014 23.8463,0 -14.6927,80.5975 -15.0276,0 14.0128,-66.8646 z m 63.8451,0 -16.5674,0 16.8874,-80.5975 32.6999,0 c 5.8341,0 10.4333,0.6949 13.8078,2.0647 3.3945,1.3698 6.0791,3.6394 8.0488,6.8089 1.9697,3.1695 2.9645,6.9589 2.9645,11.3482 0,4.0744 -0.7899,8.0338 -2.3646,11.8782 -1.5748,3.8644 -3.5095,6.9389 -5.7991,9.2486 -2.2847,2.3096 -4.7443,4.0543 -7.3889,5.2541 -2.6296,1.1799 -6.174,2.0797 -10.6583,2.7196 -2.5896,0.355 -7.4639,0.5449 -14.5927,0.5449 l -10.6034,0 z m 9.2486,-44.2382 5.1042,0 c 8.7436,0 14.5777,-0.5449 17.5023,-1.6347 2.9295,-1.0848 5.2341,-2.8296 6.9239,-5.2342 1.6697,-2.3996 2.5146,-5.0442 2.5146,-7.9138 0,-1.9347 -0.43,-3.5094 -1.2948,-4.7492 -0.8649,-1.2398 -2.0647,-2.1397 -3.6195,-2.6996 -1.5597,-0.5649 -5.0292,-0.8449 -10.4133,-0.8449 l -11.8782,0 z"
       inkscape:connector-curvature="0" />
  </g>
</svg>
