<svg xmlns="http://www.w3.org/2000/svg" width="705.962" height="335.269" viewBox="0 0 661.839 314.31482"><g fill-rule="evenodd"><path d="M132.529 32.09c-12.98.112-25.358 3.075-36.413 8.485-23.05 11.284-40.293 32.82-45.845 64.157-5.551 31.338 2.755 65.864 21.09 93.964 9.15 14.03 20.645 26.465 33.789 36.293 12.993 9.723 27.734 16.993 42.978 20.782 15.25 3.793 29.458 3.916 42.54 1.119a80.117 80.117 0 0 0 31.37-14.254 75.952 75.952 0 0 1-11.154-10.865c-16.46 10.617-37.456 14.472-61.018 8.351-26.28-6.826-50.23-25.434-65.894-49.535-15.664-24.101-22.983-53.79-18.432-80.836 4.552-27.041 19.296-45.98 39.008-56.039 18.945-9.669 42.76-10.48 66.07-1.31 18.394 7.237 34.07 19.423 46.354 34.431a56.595 56.595 0 0 1 6.227-9.158c-4.731-5.61-9.87-10.867-15.38-15.648-10.6-9.2-22.567-16.79-35.84-22.125-13.27-5.333-26.775-7.915-39.45-7.813z" fill="#fff"/><path d="M46.591 166.698c4.896 14.985 12.224 29.346 21.547 42.354 3.589 5.005 7.949 9.91 12.77 14.605l-25.165 23.334c-6.297-6.125-11.972-12.527-16.603-19.072-11.906-16.82-21.167-35.401-27.211-54.851l34.662-6.37z" fill="#127bca"/><path d="M120.57 6.693c-5.93-.014-11.838.295-17.475 1.002l8.715 19.466c8.33-1.195 17.39-1.353 26.045-.799 3.082.199 5.922.42 8.638.678L143.93 8.154a322.104 322.104 0 0 0-10.205-.932c-4.328-.332-8.747-.52-13.154-.53z" fill="#fff"/><path d="M96.013 8.833c-4.288.852-8.337 1.976-12.01 3.424a101.121 101.121 0 0 0-28.736 17.254L71.6 46.468a85.94 85.94 0 0 1 24.555-15.3c2.948-1.21 6.188-2.171 9.617-2.925l-9.76-19.41z" fill="#fff"/><path d="M150.413 8.96l1.688 18.703c7.33.978 13.731 2.511 20.642 5.326 10.992 4.473 5.786 2.524 8.618 3.897.171-1.678.345-3.326.52-4.994a27.79 27.79 0 0 1-1.661-2.203c-2.786-4.125-4.37-8.988-4.416-13.725-.494-.208-.562-.24-1.133-.48-7.996-3.355-15.54-5.253-24.258-6.524z" fill="#fff"/><path d="M210.814 36.823c-.273.25-.54.503-.828.73a15.802 15.802 0 0 1-6.596 3.054c-.214.044-.432.079-.649.115-.266 2.927-.536 5.821-.8 8.771 9.279 6.907 17.75 14.972 25.248 23.866 3.515-3.43 7.475-6.423 11.787-8.955-8.361-10.197-17.816-19.51-28.162-27.58z" fill="#fff"/><path d="M187.61 37.068l-.454 4.552c-1.343 13.512-2.739 27.233-4.145 41.213-.294.088-.605.136-.87.2-15.697 3.232-31.918 6.573-48.651 9.97-.66.143-1.284.263-1.948.41.098-.713.2-1.426.297-2.138.933-7.164 1.856-14.264 2.77-21.3-6.084-2.28-12.173-4.526-18.33-6.864-2.495 17.5-5.006 35.302-7.565 53.431-.097.655-.194 1.308-.283 1.895-.649-.21-1.303-.42-1.924-.625-17.226-5.738-34.85-11.612-52.842-17.598-6.032-2.006-12.386-4.108-18.521-6.14.274 1.835.393 3.7.289 5.585a23.672 23.672 0 0 1-1.057 5.834c5.736 1.86 11.697 3.79 17.336 5.621 18.17 5.908 35.937 11.7 53.223 17.334.659.205 1.313.41 1.992.659-.116.615-.216 1.264-.318 1.918-2.68 18.95-5.41 38.224-8.223 57.853 6.709 1.919 13.298 3.812 19.924 5.678 1.055-8.038 2.095-15.982 3.135-23.926.077-.781.184-1.557.287-2.305.238.24.507.488.752.727.228.269.475.509.777.732.078.09.156.182.238.24a3417.99 3417.99 0 0 0 18.047 17.608c-3.237 4.096-6.45 8.18-9.746 12.291 7.109 1.963 14.15 3.969 21.1 5.951 3.432.981 6.893 1.968 10.326 2.95 2.115 2.084 4.234 4.193 6.392 6.25-1.68 16.473-3.371 33.3-5.119 50.37-.39 3.804-.801 7.77-1.197 11.606.484-.04.972-.07 1.465-.074 2.83-.023 5.845.553 8.808 1.744.076.03.148.065.223.096.827-8.501 1.815-18.566 2.524-25.94 1.82-18.906 3.256-33.755 3.98-41.308-3.672-3.574-7.36-7.174-11.027-10.836-1.358-3.648-2.71-7.26-4.076-10.952-2.725-7.308-5.43-14.57-8.077-21.845-3.076 3.891-6.2 7.818-9.28 11.773-7.53-7.384-15.095-14.8-22.702-22.281-.616-.556-1.2-1.103-1.748-1.709.102-.741.18-1.527.283-2.27 2.05-15.658 4.086-31.017 6.059-46.125.098-.712.201-1.424.298-2.136 21.402-4.654 41.93-9.083 61.71-13.346 1.43-14.946 2.791-29.557 4.164-43.97l.681-7.182a21.744 21.744 0 0 1-1.459-.291c-2.641-.635-5.203-1.793-7.517-3.33z" fill="#fff"/><path d="M49.837 34.517a101.654 101.654 0 0 0-3.31 3.424c-9.325 10.138-16.94 22.485-22.211 36.81.057.05.12.093.177.143a32.367 32.367 0 0 1 6.061 7.068 33.406 33.406 0 0 1 1.941 3.537l12.092 4.076c4.708-15.502 12.505-28.516 22.451-38.738l-17.2-16.32z" fill="#fff"/><path d="M30.765 112.243c-.763.93-1.601 1.78-2.518 2.526a17.9 17.9 0 0 1-7.584 3.633c-2.92.624-6.093.597-9.498-.25-2.488-.619-4.915-1.658-7.175-3.018-.646 16.537 1.307 33.285 5.584 49.691l35.091-4.517c-4.097-14.779-5.824-30.05-4.76-45.14-3.003-.963-6.11-1.956-9.14-2.925z" fill="#127bca"/><path d="M85.452 227.9l-23.808 24.586c9.778 8.74 20.66 16.786 31.406 23.662 19.868 12.71 33.817 20.287 50.121 23.851 1.543.338 1.915.413 3.03.655-.28-2.513-.23-5.03.2-7.46 1.173-6.615 4.679-11.268 9.407-13.886.448-4.225.911-8.52 1.353-12.707-3.32-.469 2.725 1.123-10.025-1.973-12.749-3.095-23.26-9.008-38.285-18.851-7.988-5.237-16.08-11.308-23.399-17.877z" fill="#127bca"/><path d="M229.253 247.7c-13.028 10.822-29.184 17.79-47.365 19.567-.491 5.102-.968 10.303-1.447 15.482.381.3.77.594 1.136.912 2.15 1.865 4.036 4.057 5.625 6.434 25.4-3.377 47.148-15.347 63.159-33.172-7.47-2.122-14.568-5.175-21.108-9.223z" fill="#fff"/><path d="M172.389 287.165a15.744 15.744 0 0 1 4.445 2.743 17.983 17.983 0 0 1 3.366 3.927c1.853 2.916 2.904 6.326 2.71 9.83-.195 3.503-1.679 6.51-3.992 8.392a9.941 9.941 0 0 1-4.212 2.018c-1.622.347-3.384.332-5.275-.139-1.89-.47-3.719-1.371-5.33-2.577a17.708 17.708 0 0 1-4.19-4.501c-2.275-3.485-3.305-7.767-2.616-11.653.688-3.887 2.827-6.557 5.685-7.957a10.455 10.455 0 0 1 4.516-1.052c1.572-.013 3.247.307 4.893.969z" fill="#127bca"/><path d="M15.305 78.398a15.744 15.744 0 0 1 4.445 2.743 17.983 17.983 0 0 1 3.367 3.927c1.853 2.916 2.903 6.326 2.709 9.83-.194 3.503-1.679 6.51-3.991 8.392a9.941 9.941 0 0 1-4.213 2.018c-1.622.347-3.384.332-5.275-.139-1.89-.47-3.719-1.371-5.33-2.577a17.708 17.708 0 0 1-4.19-4.501C.551 94.606-.479 90.324.21 86.438c.688-3.887 2.827-6.557 5.685-7.957a10.455 10.455 0 0 1 4.516-1.052c1.572-.013 3.247.307 4.893.969z" fill="#127bca"/><path d="M198.729 6.99a13.78 13.78 0 0 1 3.866 2.305 15.267 15.267 0 0 1 2.928 3.3c1.612 2.45 2.525 5.316 2.356 8.26-.169 2.945-1.46 5.472-3.471 7.053a8.777 8.777 0 0 1-3.664 1.696c-1.41.292-2.943.279-4.588-.117-1.644-.394-3.235-1.152-4.636-2.165a15.098 15.098 0 0 1-3.645-3.783c-1.977-2.929-2.873-6.527-2.275-9.793.6-3.266 2.46-5.51 4.946-6.686a9.355 9.355 0 0 1 3.927-.885c1.367-.01 2.824.259 4.256.814z" fill="#127bca"/></g><path d="M284.168 214.024c-2.09.361-4.335.551-6.724.551-15.531 0-24.985-7.372-32.075-17.5l-26.338 21.216c11.48 16.207 31.064 27.685 59.43 27.685 10.102 0 19.467-1.606 27.617-4.731l-21.91-27.221z" fill="#127bca"/><path d="M289.94 140.855l-8.78-3.716c-15.195-6.753-21.948-10.807-21.948-21.553 0-8.442 6.753-15.137 17.222-15.137 9.116 0 15.19 3.321 20.933 12.1l25.322-20.879c-11.142-15.869-26.334-22.285-46.255-22.285-31.744 0-52.002 20.259-52.002 46.875 0 28.984 16.885 42.436 42.543 53.52l8.78 3.716c16.212 7.09 26.001 11.48 26.001 23.579 0 3.462-1.103 6.601-3.15 9.234l21.686 26.948c10.556-8.393 16.918-20.81 16.918-36.856 0-29.604-16.885-42.774-47.27-55.546" fill="#fff"/><path d="M526.503 104.16h81.376V69.385H491.727v176.591h116.152v-34.775h-81.376V175.07h51.665v-34.777h-51.665V104.16z" fill="#fff"/><path d="M391.17 104.16h81.373V69.385H356.39v176.591h116.153v-34.775H391.17V175.07h51.66v-34.777h-51.66V104.16z" fill="#fff"/><path d="M627.059 211.201h34.78v34.775h-34.78v-34.775z" fill="#127bca" fill-rule="evenodd"/><path d="M268.802 259.493c-4.122 0-6.08 2.63-6.08 6.865 0 7.73 9.176 8.315 9.176 14.433 0 2.475-1.02 3.926-3.213 3.926-2.197 0-3.218-1.45-3.218-3.926v-1.724H262.6v1.568c0 4.16 1.964 6.865 6.163 6.865 4.195 0 6.196-2.705 6.196-6.865 0-7.725-9.219-8.315-9.219-14.473 0-2.432.943-3.882 3.14-3.882 2.198 0 3.135 1.45 3.135 3.921v.904h2.905v-.748c0-4.155-1.962-6.865-6.118-6.865zm11.884 12.436v-9.375h8.238v-2.784h-11.299v27.456h11.299v-2.782h-8.238v-9.772h6.704v-2.743h-6.704zm25.533-6.788v22.085h2.905V259.77h-4.278l-4.35 21.925-4.512-21.925h-4.276v27.456h2.665v-21.889l4.551 21.85h2.944l4.351-22.046zm16.084 16.554l1.06 5.531h3.061l-5.259-27.456h-4.434l-5.253 27.456h2.822l1.059-5.531h6.944zm-3.53-18.473l3.1 15.845h-6.118l3.018-15.845zm12.748 1.803l7.022 22.201h3.178V259.77h-2.71v19.844l-6.352-19.844h-3.881v27.456h2.743v-22.201zm23.38 16.67l1.06 5.531h3.055l-5.253-27.456h-4.434l-5.254 27.456h2.823l1.06-5.531h6.942zm-3.53-18.473l3.096 15.845h-6.12l3.023-15.845zm16.122-3.452v27.456h6.431c4.277 0 6.235-2.587 6.235-6.786v-13.848c0-4.233-1.957-6.822-6.235-6.822h-6.431zm3.057 24.674v-21.89h3.295c2.238 0 3.297 1.372 3.297 3.882v14.12c0 2.51-1.06 3.888-3.257 3.888h-3.335zm15.533-12.515v-9.375h8.236v-2.784h-11.294v27.456h11.294v-2.782h-8.236v-9.772h6.709v-2.743h-6.71zm20.2 0v-9.375h8.237v-2.784h-11.295v27.456h11.295v-2.782h-8.237v-9.772h6.709v-2.743h-6.71zm13.769-6.904l7.022 22.201h3.179V259.77h-2.706v19.844l-6.357-19.844h-3.882v27.456h2.744v-22.201zm19.258-5.533c-4.195 0-6.157 2.75-6.157 6.904v14.2c0 4.16 1.962 6.904 6.157 6.904 4.238 0 6.202-2.744 6.202-6.904v-8.081h-5.73v2.749h2.823v5.488c0 2.475-.976 3.965-3.212 3.965-2.198 0-3.218-1.49-3.218-3.965V266.24c0-2.47 1.02-3.96 3.218-3.96 2.236 0 3.212 1.49 3.212 3.96v2.51h2.907v-2.354c0-4.155-1.964-6.904-6.202-6.904zm12.163 12.437v-9.375h8.237v-2.784h-11.298v27.456h11.298v-2.782h-8.237v-9.772h6.709v-2.743h-6.71zm13.77-6.904l7.021 22.201h3.174V259.77h-2.705v19.844l-6.353-19.844h-3.887v27.456h2.75v-22.201zm23.139 9.844v12.357h3.062V259.77h-3.062v12.354h-6.748V259.77h-3.056v27.456h3.056V274.87h6.748zm16.24 6.826l1.06 5.531h3.06l-5.258-27.456h-4.432l-5.255 27.456h2.822l1.06-5.531h6.944zm-3.53-18.473l3.1 15.845h-6.123l3.023-15.845zm10.045-3.452v27.456h3.056V275.5h2.157c2.549 0 4 .981 4 4.076v4.316c0 1.846.157 2.549.513 3.335h3.095c-.508-.942-.546-2.08-.546-3.295v-4.272c0-2.945-.943-4.987-3.453-5.728 2.354-.747 3.414-2.632 3.414-5.65v-2.236c0-4.078-1.808-6.275-6.119-6.275h-6.117zm3.056 12.945v-10.161h2.984c2.275 0 3.173 1.293 3.173 3.765v2.626c0 2.984-1.451 3.77-3.882 3.77h-2.275zm12.397-12.945v27.456h3.057V259.77h-3.057zm16.235 21.925l1.06 5.531h3.062l-5.26-27.456h-4.428L532 287.226h2.828l1.059-5.531h6.938zm-3.53-18.473l3.1 15.845h-6.117l3.017-15.845zm19.185 8.707v-9.375h8.237v-2.784h-11.3v27.456h11.3v-2.782h-8.237v-9.772h6.704v-2.743h-6.704zm21.963 15.297v-2.782H572.6V259.77h-3.061v27.456h10.904zm8.827-33.027l-2.743 4.038h2.113l3.648-4.038h-3.018zm-3.451 17.73v-9.375h8.236v-2.784h-11.298v27.456h11.298v-2.782h-8.236v-9.772h6.709v-2.743h-6.709zm18.12 15.297v-24.672h5.064v-2.784h-13.184v2.784h5.063v24.672h3.057zm7.178-27.456v27.456h3.06V275.5h2.16c2.548 0 3.998.981 3.998 4.076v4.316c0 1.846.157 2.549.513 3.335h3.096c-.509-.942-.547-2.08-.547-3.295v-4.272c0-2.945-.943-4.987-3.453-5.728 2.354-.747 3.414-2.632 3.414-5.65v-2.236c0-4.078-1.806-6.275-6.119-6.275h-6.122zm3.06 12.945v-10.161h2.985c2.27 0 3.173 1.293 3.173 3.765v2.626c0 2.984-1.45 3.77-3.882 3.77h-2.275zm12.393-12.945v27.456h3.062V259.77h-3.062zm12.124-.278c-4.199 0-6.156 2.75-6.156 6.904v14.2c0 4.16 1.957 6.904 6.156 6.904 4.234 0 6.196-2.744 6.196-6.904v-3.414h-2.9v3.57c0 2.475-.981 3.965-3.217 3.965-2.198 0-3.218-1.49-3.218-3.965V266.24c0-2.47 1.02-3.96 3.218-3.96 2.236 0 3.217 1.49 3.217 3.96v2.627h2.9v-2.47c0-4.156-1.962-6.905-6.196-6.905zm19.024 22.203l1.06 5.531h3.056l-5.254-27.456h-4.433l-5.254 27.456h2.822l1.059-5.531h6.944zm-3.53-18.473l3.095 15.845h-6.118l3.023-15.845z" fill="#fff"/><path d="M358.802 0l-13.023 19.785L332.645 0h-14.428l20.292 30.791-20.176 30.552h14.429l13.017-19.663 12.906 19.663h14.424L352.938 30.79 373.225 0h-14.423z" fill="#fff"/><path d="M276.019 34.121l-17.974 27.221h14.429l10.776-16.278-7.231-10.943z" fill="#127bca"/><path d="M298.514 0l-13.022 19.785L272.357 0h-14.43l15.338 23.266 12.202 18.453.025-.039 6.42 9.785.03.049 6.455 9.828h14.423l-20.175-30.55L312.938 0h-14.424z" fill="#fff"/></svg>