<svg xmlns="http://www.w3.org/2000/svg" width="705.962" height="335.269" viewBox="0 0 661.839 314.31482"><g fill-rule="evenodd"><path d="M132.529 32.09c-12.98.112-25.358 3.075-36.413 8.485-23.05 11.284-40.293 32.82-45.845 64.157-5.551 31.338 2.755 65.864 21.09 93.964 9.15 14.03 20.645 26.465 33.789 36.293 12.993 9.723 27.734 16.993 42.978 20.782 15.25 3.793 29.458 3.916 42.54 1.119a80.117 80.117 0 0 0 31.37-14.254 75.952 75.952 0 0 1-11.154-10.865c-16.46 10.617-37.456 14.472-61.018 8.351-26.28-6.826-50.23-25.434-65.894-49.535-15.664-24.101-22.983-53.79-18.432-80.836 4.552-27.041 19.296-45.98 39.008-56.039 18.945-9.669 42.76-10.48 66.07-1.31 18.394 7.237 34.07 19.423 46.354 34.431a56.595 56.595 0 0 1 6.227-9.158c-4.731-5.61-9.87-10.867-15.38-15.648-10.6-9.2-22.567-16.79-35.84-22.125-13.27-5.333-26.775-7.915-39.45-7.813z" fill="#fff"/><path d="M46.591 166.698c4.896 14.985 12.224 29.346 21.547 42.354 3.589 5.005 7.949 9.91 12.77 14.605l-25.165 23.334c-6.297-6.125-11.972-12.527-16.603-19.072-11.906-16.82-21.167-35.401-27.211-54.851l34.662-6.37z" fill="#127bca"/><path d="M120.57 6.693c-5.93-.014-11.838.295-17.475 1.002l8.715 19.466c8.33-1.195 17.39-1.353 26.045-.799 3.082.199 5.922.42 8.638.678L143.93 8.154a322.104 322.104 0 0 0-10.205-.932c-4.328-.332-8.747-.52-13.154-.53z" fill="#fff"/><path d="M96.013 8.833c-4.288.852-8.337 1.976-12.01 3.424a101.121 101.121 0 0 0-28.736 17.254L71.6 46.468a85.94 85.94 0 0 1 24.555-15.3c2.948-1.21 6.188-2.171 9.617-2.925l-9.76-19.41z" fill="#fff"/><path d="M150.413 8.96l1.688 18.703c7.33.978 13.731 2.511 20.642 5.326 10.992 4.473 5.786 2.524 8.618 3.897.171-1.678.345-3.326.52-4.994a27.79 27.79 0 0 1-1.661-2.203c-2.786-4.125-4.37-8.988-4.416-13.725-.494-.208-.562-.24-1.133-.48-7.996-3.355-15.54-5.253-24.258-6.524z" fill="#fff"/><path d="M210.814 36.823c-.273.25-.54.503-.828.73a15.802 15.802 0 0 1-6.596 3.054c-.214.044-.432.079-.649.115-.266 2.927-.536 5.821-.8 8.771 9.279 6.907 17.75 14.972 25.248 23.866 3.515-3.43 7.475-6.423 11.787-8.955-8.361-10.197-17.816-19.51-28.162-27.58z" fill="#fff"/><path d="M187.61 37.068l-.454 4.552c-1.343 13.512-2.739 27.233-4.145 41.213-.294.088-.605.136-.87.2-15.697 3.232-31.918 6.573-48.651 9.97-.66.143-1.284.263-1.948.41.098-.713.2-1.426.297-2.138.933-7.164 1.856-14.264 2.77-21.3-6.084-2.28-12.173-4.526-18.33-6.864-2.495 17.5-5.006 35.302-7.565 53.431-.097.655-.194 1.308-.283 1.895-.649-.21-1.303-.42-1.924-.625-17.226-5.738-34.85-11.612-52.842-17.598-6.032-2.006-12.386-4.108-18.521-6.14.274 1.835.393 3.7.289 5.585a23.672 23.672 0 0 1-1.057 5.834c5.736 1.86 11.697 3.79 17.336 5.621 18.17 5.908 35.937 11.7 53.223 17.334.659.205 1.313.41 1.992.659-.116.615-.216 1.264-.318 1.918-2.68 18.95-5.41 38.224-8.223 57.853 6.709 1.919 13.298 3.812 19.924 5.678 1.055-8.038 2.095-15.982 3.135-23.926.077-.781.184-1.557.287-2.305.238.24.507.488.752.727.228.269.475.509.777.732.078.09.156.182.238.24a3417.99 3417.99 0 0 0 18.047 17.608c-3.237 4.096-6.45 8.18-9.746 12.291 7.109 1.963 14.15 3.969 21.1 5.951 3.432.981 6.893 1.968 10.326 2.95 2.115 2.084 4.234 4.193 6.392 6.25-1.68 16.473-3.371 33.3-5.119 50.37-.39 3.804-.801 7.77-1.197 11.606.484-.04.972-.07 1.465-.074 2.83-.023 5.845.553 8.808 1.744.076.03.148.065.223.096.827-8.501 1.815-18.566 2.524-25.94 1.82-18.906 3.256-33.755 3.98-41.308-3.672-3.574-7.36-7.174-11.027-10.836-1.358-3.648-2.71-7.26-4.076-10.952-2.725-7.308-5.43-14.57-8.077-21.845-3.076 3.891-6.2 7.818-9.28 11.773-7.53-7.384-15.095-14.8-22.702-22.281-.616-.556-1.2-1.103-1.748-1.709.102-.741.18-1.527.283-2.27 2.05-15.658 4.086-31.017 6.059-46.125.098-.712.201-1.424.298-2.136 21.402-4.654 41.93-9.083 61.71-13.346 1.43-14.946 2.791-29.557 4.164-43.97l.681-7.182a21.744 21.744 0 0 1-1.459-.291c-2.641-.635-5.203-1.793-7.517-3.33z" fill="#fff"/><path d="M49.837 34.517a101.654 101.654 0 0 0-3.31 3.424c-9.325 10.138-16.94 22.485-22.211 36.81.057.05.12.093.177.143a32.367 32.367 0 0 1 6.061 7.068 33.406 33.406 0 0 1 1.941 3.537l12.092 4.076c4.708-15.502 12.505-28.516 22.451-38.738l-17.2-16.32z" fill="#fff"/><path d="M30.765 112.243c-.763.93-1.601 1.78-2.518 2.526a17.9 17.9 0 0 1-7.584 3.633c-2.92.624-6.093.597-9.498-.25-2.488-.619-4.915-1.658-7.175-3.018-.646 16.537 1.307 33.285 5.584 49.691l35.091-4.517c-4.097-14.779-5.824-30.05-4.76-45.14-3.003-.963-6.11-1.956-9.14-2.925z" fill="#127bca"/><path d="M85.452 227.9l-23.808 24.586c9.778 8.74 20.66 16.786 31.406 23.662 19.868 12.71 33.817 20.287 50.121 23.851 1.543.338 1.915.413 3.03.655-.28-2.513-.23-5.03.2-7.46 1.173-6.615 4.679-11.268 9.407-13.886.448-4.225.911-8.52 1.353-12.707-3.32-.469 2.725 1.123-10.025-1.973-12.749-3.095-23.26-9.008-38.285-18.851-7.988-5.237-16.08-11.308-23.399-17.877z" fill="#127bca"/><path d="M229.253 247.7c-13.028 10.822-29.184 17.79-47.365 19.567-.491 5.102-.968 10.303-1.447 15.482.381.3.77.594 1.136.912 2.15 1.865 4.036 4.057 5.625 6.434 25.4-3.377 47.148-15.347 63.159-33.172-7.47-2.122-14.568-5.175-21.108-9.223z" fill="#fff"/><path d="M172.389 287.165a15.744 15.744 0 0 1 4.445 2.743 17.983 17.983 0 0 1 3.366 3.927c1.853 2.916 2.904 6.326 2.71 9.83-.195 3.503-1.679 6.51-3.992 8.392a9.941 9.941 0 0 1-4.212 2.018c-1.622.347-3.384.332-5.275-.139-1.89-.47-3.719-1.371-5.33-2.577a17.708 17.708 0 0 1-4.19-4.501c-2.275-3.485-3.305-7.767-2.616-11.653.688-3.887 2.827-6.557 5.685-7.957a10.455 10.455 0 0 1 4.516-1.052c1.572-.013 3.247.307 4.893.969z" fill="#127bca"/><path d="M15.305 78.398a15.744 15.744 0 0 1 4.445 2.743 17.983 17.983 0 0 1 3.367 3.927c1.853 2.916 2.903 6.326 2.709 9.83-.194 3.503-1.679 6.51-3.991 8.392a9.941 9.941 0 0 1-4.213 2.018c-1.622.347-3.384.332-5.275-.139-1.89-.47-3.719-1.371-5.33-2.577a17.708 17.708 0 0 1-4.19-4.501C.551 94.606-.479 90.324.21 86.438c.688-3.887 2.827-6.557 5.685-7.957a10.455 10.455 0 0 1 4.516-1.052c1.572-.013 3.247.307 4.893.969z" fill="#127bca"/><path d="M198.729 6.99a13.78 13.78 0 0 1 3.866 2.305 15.267 15.267 0 0 1 2.928 3.3c1.612 2.45 2.525 5.316 2.356 8.26-.169 2.945-1.46 5.472-3.471 7.053a8.777 8.777 0 0 1-3.664 1.696c-1.41.292-2.943.279-4.588-.117-1.644-.394-3.235-1.152-4.636-2.165a15.098 15.098 0 0 1-3.645-3.783c-1.977-2.929-2.873-6.527-2.275-9.793.6-3.266 2.46-5.51 4.946-6.686a9.355 9.355 0 0 1 3.927-.885c1.367-.01 2.824.259 4.256.814z" fill="#127bca"/></g><path d="M284.168 214.024c-2.09.361-4.335.551-6.724.551-15.531 0-24.985-7.372-32.075-17.5l-26.338 21.216c11.48 16.207 31.064 27.685 59.43 27.685 10.102 0 19.467-1.606 27.617-4.731l-21.91-27.221z" fill="#127bca"/><path d="M289.94 140.855l-8.78-3.716c-15.195-6.753-21.948-10.807-21.948-21.553 0-8.442 6.753-15.137 17.222-15.137 9.116 0 15.19 3.321 20.933 12.1l25.322-20.879c-11.142-15.869-26.334-22.285-46.255-22.285-31.744 0-52.002 20.259-52.002 46.875 0 28.984 16.885 42.436 42.543 53.52l8.78 3.716c16.212 7.09 26.001 11.48 26.001 23.579 0 3.462-1.103 6.601-3.15 9.234l21.686 26.948c10.556-8.393 16.918-20.81 16.918-36.856 0-29.604-16.885-42.774-47.27-55.546" fill="#fff"/><path d="M526.503 104.16h81.376V69.385H491.727v176.591h116.152v-34.775h-81.376V175.07h51.665v-34.777h-51.665V104.16z" fill="#fff"/><path d="M391.17 104.16h81.373V69.385H356.39v176.591h116.153v-34.775H391.17V175.07h51.66v-34.777h-51.66V104.16z" fill="#fff"/><path d="M627.059 211.201h34.78v34.775h-34.78v-34.775z" fill="#127bca" fill-rule="evenodd"/><path d="M268.802 259.493c-4.122 0-6.08 2.63-6.08 6.865 0 7.73 9.176 8.315 9.176 14.433 0 2.475-1.02 3.926-3.213 3.926-2.197 0-3.218-1.45-3.218-3.926v-1.724H262.6v1.568c0 4.16 1.964 6.865 6.163 6.865 4.195 0 6.196-2.705 6.196-6.865 0-7.725-9.219-8.315-9.219-14.473 0-2.432.943-3.882 3.14-3.882 2.198 0 3.135 1.45 3.135 3.921v.904h2.905v-.748c0-4.155-1.962-6.865-6.118-6.865zm11.884 12.436v-9.375h8.238v-2.784h-11.299v27.456h11.299v-2.782h-8.238v-9.772h6.704v-2.743h-6.704zm25.533-6.788v22.085h2.905V259.77h-4.278l-4.35 21.925-4.512-21.925h-4.276v27.456h2.665v-21.889l4.551 21.85h2.944l4.351-22.046zm16.084 16.554l1.06 5.531h3.061l-5.259-27.456h-4.434l-5.253 27.456h2.822l1.059-5.531h6.944zm-3.53-18.473l3.1 15.845h-6.118l3.018-15.845zm12.748 1.803l7.022 22.201h3.178V259.77h-2.71v19.844l-6.352-19.844h-3.881v27.456h2.743v-22.201zm23.38 16.67l1.06 5.531h3.055l-5.253-27.456h-4.434l-5.254 27.456h2.823l1.06-5.531h6.942zm-3.53-18.473l3.096 15.845h-6.12l3.023-15.845zm16.122-3.452v27.456h6.431c4.277 0 6.235-2.587 6.235-6.786v-13.848c0-4.233-1.957-6.822-6.235-6.822h-6.431zm3.057 24.674v-21.89h3.295c2.238 0 3.297 1.372 3.297 3.882v14.12c0 2.51-1.06 3.888-3.257 3.888h-3.335zm15.533-12.515v-9.375h8.236v-2.784h-11.294v27.456h11.294v-2.782h-8.236v-9.772h6.709v-2.743h-6.71zm20.2 0v-9.375h8.237v-2.784h-11.295v27.456h11.295v-2.782h-8.237v-9.772h6.709v-2.743h-6.71zm13.769-6.904l7.022 22.201h3.179V259.77h-2.706v19.844l-6.357-19.844h-3.882v27.456h2.744v-22.201zm19.258-5.533c-4.195 0-6.157 2.75-6.157 6.904v14.2c0 4.16 1.962 6.904 6.157 6.904 4.238 0 6.202-2.744 6.202-6.904v-8.081h-5.73v2.749h2.823v5.488c0 2.475-.976 3.965-3.212 3.965-2.198 0-3.218-1.49-3.218-3.965V266.24c0-2.47 1.02-3.96 3.218-3.96 2.236 0 3.212 1.49 3.212 3.96v2.51h2.907v-2.354c0-4.155-1.964-6.904-6.202-6.904zm12.163 12.437v-9.375h8.237v-2.784h-11.298v27.456h11.298v-2.782h-8.237v-9.772h6.709v-2.743h-6.71zm13.77-6.904l7.021 22.201h3.174V259.77h-2.705v19.844l-6.353-19.844h-3.887v27.456h2.75v-22.201zm23.139 9.844v12.357h3.062V259.77h-3.062v12.354h-6.748V259.77h-3.056v27.456h3.056V274.87h6.748zm16.24 6.826l1.06 5.531h3.06l-5.258-27.456h-4.432l-5.255 27.456h2.822l1.06-5.531h6.944zm-3.53-18.473l3.1 15.845h-6.123l3.023-15.845zm10.045-3.452v27.456h3.056V275.5h2.157c2.549 0 4 .981 4 4.076v4.316c0 1.846.157 2.549.513 3.335h3.095c-.508-.942-.546-2.08-.546-3.295v-4.272c0-2.945-.943-4.987-3.453-5.728 2.354-.747 3.414-2.632 3.414-5.65v-2.236c0-4.078-1.808-6.275-6.119-6.275h-6.117zm3.056 12.945v-10.161h2.984c2.275 0 3.173 1.293 3.173 3.765v2.626c0 2.984-1.451 3.77-3.882 3.77h-2.275zm12.397-12.945v27.456h3.057V259.77h-3.057zm16.235 21.925l1.06 5.531h3.062l-5.26-27.456h-4.428L532 287.226h2.828l1.059-5.531h6.938zm-3.53-18.473l3.1 15.845h-6.117l3.017-15.845zm19.185 8.707v-9.375h8.237v-2.784h-11.3v27.456h11.3v-2.782h-8.237v-9.772h6.704v-2.743h-6.704zm21.963 15.297v-2.782H572.6V259.77h-3.061v27.456h10.904zm8.827-33.027l-2.743 4.038h2.113l3.648-4.038h-3.018zm-3.451 17.73v-9.375h8.236v-2.784h-11.298v27.456h11.298v-2.782h-8.236v-9.772h6.709v-2.743h-6.709zm18.12 15.297v-24.672h5.064v-2.784h-13.184v2.784h5.063v24.672h3.057zm7.178-27.456v27.456h3.06V275.5h2.16c2.548 0 3.998.981 3.998 4.076v4.316c0 1.846.157 2.549.513 3.335h3.096c-.509-.942-.547-2.08-.547-3.295v-4.272c0-2.945-.943-4.987-3.453-5.728 2.354-.747 3.414-2.632 3.414-5.65v-2.236c0-4.078-1.806-6.275-6.119-6.275h-6.122zm3.06 12.945v-10.161h2.985c2.27 0 3.173 1.293 3.173 3.765v2.626c0 2.984-1.45 3.77-3.882 3.77h-2.275zm12.393-12.945v27.456h3.062V259.77h-3.062zm12.124-.278c-4.199 0-6.156 2.75-6.156 6.904v14.2c0 4.16 1.957 6.904 6.156 6.904 4.234 0 6.196-2.744 6.196-6.904v-3.414h-2.9v3.57c0 2.475-.981 3.965-3.217 3.965-2.198 0-3.218-1.49-3.218-3.965V266.24c0-2.47 1.02-3.96 3.218-3.96 2.236 0 3.217 1.49 3.217 3.96v2.627h2.9v-2.47c0-4.156-1.962-6.905-6.196-6.905zm19.024 22.203l1.06 5.531h3.056l-5.254-27.456h-4.433l-5.254 27.456h2.822l1.059-5.531h6.944zm-3.53-18.473l3.095 15.845h-6.118l3.023-15.845z" fill="#fff"/><path d="M358.802 0l-13.023 19.785L332.645 0h-14.428l20.292 30.791-20.176 30.552h14.429l13.017-19.663 12.906 19.663h14.424L352.938 30.79 373.225 0h-14.423z" fill="#fff"/><path d="M276.019 34.121l-17.974 27.221h14.429l10.776-16.278-7.231-10.943z" fill="#127bca"/><path d="M298.514 0l-13.022 19.785L272.357 0h-14.43l15.338 23.266 12.202 18.453.025-.039 6.42 9.785.03.049 6.455 9.828h14.423l-20.175-30.55L312.938 0h-14.424z" fill="#fff"/><path d="M310.401 220.24c-5.228-6.528-9.82-12.389-10.203-13.024-.383-.636.013-2.853.88-4.927 1.849-4.427 1.25-9.713-1.638-14.463-2.642-4.345-9.867-8.706-27.016-16.308-26.076-11.56-35.874-18.93-42.127-31.691-11.933-24.348-3.038-53.2 19.753-64.078 8.932-4.263 14.811-5.484 26.71-5.548 17.027-.09 28.553 4.135 39.005 14.298 3.27 3.181 5.911 6.216 5.868 6.744-.043.528-5.486 5.39-12.096 10.803l-12.018 9.843-2.298-3.123c-7.262-9.866-24.133-11.648-32.134-3.393-2.726 2.812-3.41 4.419-3.78 8.882-.908 10.949 3.603 15.452 24.51 24.468 23.417 10.099 33.125 15.846 40.76 24.13 12.535 13.598 15.736 36.935 7.457 54.357-2.88 6.06-9.586 14.9-11.303 14.9-.453 0-5.101-5.341-10.33-11.87z" stroke="#29235c" stroke-width="1.01"/><path d="M357.067 157.358V69.475h115.157v34.345h-81.868l.276 18.436.275 18.435 25.506.27 25.507.27v33.3h-51.518v37.376h81.822v33.335H357.067v-87.884z" stroke="#29235c" stroke-width="1.01"/><path d="M492.427 157.358V69.475h115.158v34.345h-81.868l.275 18.436.276 18.435 25.506.27 25.506.27v33.3h-51.518v37.376h81.822v33.335H492.428v-87.884z" stroke="#29235c" stroke-width="1.01"/><path d="M167.326 276.83l-3.368-.414.719-8.63c.785-9.42.352-10.377-4.713-10.407-10.097-.059-36.016-10.137-49.338-19.183-30.01-20.38-51.475-52.932-59.298-89.929-1.269-6.004-1.82-13.068-1.834-23.486l-.018-14.9-6.895-2.298c-3.792-1.264-6.86-2.627-6.818-3.03.041-.403.075-2.751.075-5.218v-4.486l7.248 2.466c3.987 1.355 7.549 2.465 7.916 2.465s1.45-2.841 2.405-6.314C57.643 78.072 68.192 61.54 79.988 51.81c26.446-21.814 63.034-24.994 98.164-8.532 4.663 2.186 8.643 3.974 8.844 3.974.201 0 .365-1.743.365-3.872 0-2.13.256-4.128.568-4.44.312-.312 2.244.09 4.293.893l3.726 1.461-.33 5.765-.33 5.765 8.17 6.436c4.494 3.54 10.653 9.117 13.686 12.393l5.515 5.957-2.749 3.94-2.75 3.939-7.575-7.329c-8.288-8.017-13.866-12.725-15.076-12.725-.427 0-1.308 5.764-1.956 12.809-.648 7.045-1.296 12.926-1.44 13.07-.144.144-13.796 3.19-30.338 6.768s-30.353 6.783-30.691 7.12c-.338.339-2.129 11.871-3.98 25.628l-3.364 25.013 12.142 11.87c6.677 6.528 12.531 11.869 13.009 11.869.477 0 2.6-2.272 4.717-5.048 2.117-2.776 4.155-4.708 4.529-4.293.373.415 3.071 7.346 5.995 15.402 4.907 13.521 5.748 15.092 10.932 20.435l5.617 5.787-1.228 13.91c-1.715 19.44-2.063 17.798 3.605 17.004 7.346-1.029 15.14-3.448 22.203-6.892l6.407-3.124 4.969 4.894c2.733 2.692 4.742 5.261 4.465 5.71-1.055 1.706-13.608 8.076-20.608 10.457-4.017 1.367-11.089 3.014-15.714 3.661l-8.41 1.177-.632 6.674c-.914 9.655-1.53 12.251-2.862 12.069-.65-.089-2.698-.348-4.55-.575zm.272-37.902c.31-2.36 1.02-8.718 1.58-14.126l1.016-9.833-3.736-3.424c-2.838-2.6-6.058-4.076-13.388-6.136-5.307-1.492-12.038-3.4-14.957-4.24l-5.306-1.53 4.737-6.155 4.737-6.156-9.804-9.43c-5.392-5.185-10.176-9.428-10.63-9.428-.456 0-1.403 5.164-2.107 11.474-.703 6.311-1.595 11.986-1.982 12.612-.499.808-3.34.384-9.805-1.461l-9.102-2.599 4.243-29.458c2.333-16.202 3.951-29.755 3.596-30.116-.506-.515-28.186-9.743-40.294-13.433-2.261-.69-2.273-.634-2.273 10.354 0 33.104 14.022 64.56 39.363 88.3 14.96 14.015 33.625 24.004 51.528 27.574 11.415 2.277 11.934 2.162 12.584-2.789zM109.035 116.7c.277-1.25 2.066-13.334 3.976-26.854 1.91-13.52 3.715-24.824 4.013-25.121.847-.847 15.927 4.946 16.455 6.32.26.676-.18 5.94-.975 11.7-.796 5.757-1.319 10.619-1.162 10.802.157.183 11.879-2.05 26.05-4.962l25.765-5.294.558-3.12c.307-1.716.856-7.226 1.22-12.244l.663-9.124-7.957-3.683c-21.29-9.853-41.028-12.042-60.335-6.692-18.581 5.15-34.632 18.143-43.469 35.19-3.953 7.626-8.21 20.017-7.222 21.025.615.628 39.435 14.062 41.178 14.25.406.044.965-.943 1.242-2.193z" stroke="#29235c" stroke-width="1.01"/><path d="M107.92 17.327l-4.12-9.216 8.545-.693c7.828-.636 20.327-.187 28.169 1.01 3.131.478 3.163.544 4.215 8.787.583 4.568.976 8.39.873 8.494-.104.103-7.698.333-16.876.511l-16.688.324-4.119-9.217z" stroke="#29235c" stroke-width="1.01"/><path d="M63.314 37.148l-7.375-7.904 6.365-4.514C72.146 17.75 89.137 9.876 94.36 9.876c1.049 0 3.189 3.129 5.954 8.704 2.374 4.787 4.18 8.84 4.013 9.006-.167.166-3.48 1.497-7.362 2.958-7.156 2.692-20.414 10.37-22.732 13.161-.696.84-1.779 1.486-2.405 1.437-.627-.05-4.458-3.646-8.514-7.994z" stroke="#29235c" stroke-width="1.01"/><path d="M37.593 86.815c-3.476-1.226-5.398-2.676-6.925-5.225-1.162-1.94-2.946-4.438-3.965-5.549-1.807-1.97-1.756-2.226 2.062-10.349 4.44-9.446 12.39-21.393 17.583-26.427l3.504-3.396 3.852 3.083c2.12 1.695 5.778 5.063 8.132 7.483l4.28 4.4-4.387 5.348c-5.998 7.312-11.27 16.422-14.553 25.15-1.513 4.022-3.206 7.283-3.761 7.246-.556-.037-3.176-.831-5.822-1.764z" stroke="#29235c" stroke-width="1.01"/><path d="M173.223 32.794c-4.166-1.608-10.461-3.529-13.99-4.267-3.53-.739-6.538-1.487-6.684-1.663-.146-.176-.566-4.07-.933-8.654-.768-9.591-1.16-9.29 8.83-6.764 12.417 3.14 14.534 4.3 15.29 8.38.376 2.028 1.825 5.794 3.22 8.368 3.98 7.343 3.132 8.024-5.733 4.6z" stroke="#29235c" stroke-width="1.01"/><path d="M222.529 67.557c-2.397-2.704-7.88-8.003-12.187-11.776-6.049-5.3-7.828-7.464-7.828-9.521 0-3.406 1.68-5.435 5.856-7.076 3.125-1.228 3.533-1.129 6.566 1.59 7.611 6.823 17.239 16.342 19.971 19.746l2.948 3.672-5.485 4.141-5.484 4.14-4.357-4.916z" stroke="#29235c" stroke-width="1.01"/><path d="M184.529 286.357c-3.4-3.507-3.777-5.518-2.62-13.957l.608-4.438 10.148-2.228a88.785 88.785 0 0 0 30.77-13.223l5.889-3.999 5.535 2.797c3.044 1.538 7.467 3.374 9.828 4.08 2.362.706 4.294 1.621 4.294 2.033 0 1.258-11.062 10.944-17.462 15.29-8.88 6.03-21.73 11.734-32.715 14.52-5.325 1.351-9.989 2.456-10.364 2.456s-2.135-1.499-3.911-3.33z" stroke="#29235c" stroke-width="1.01"/><path d="M289.56 47c-4.924-7.362-13.78-20.772-19.68-29.8L259.154.785h13.05l6.319 9.572c3.475 5.265 6.612 9.584 6.972 9.597.36.013 3.451-4.295 6.87-9.573l6.217-9.596h6.574c4.985 0 6.392.305 5.824 1.263-.411.694-4.812 7.357-9.78 14.805l-9.03 13.544 1.817 3.124c1 1.718 5.383 8.465 9.74 14.994l7.923 11.869h-13.136l-8.954-13.385z" stroke="#29235c" stroke-width="1.01"/><path d="M323.408 54.575c2.03-3.194 6.373-9.813 9.65-14.707l5.96-8.9-3.304-5.242c-1.817-2.884-5.857-9.107-8.977-13.83-3.121-4.722-6.01-9.154-6.42-9.848-.564-.957.83-1.263 5.747-1.263h6.492l6.328 9.596c3.48 5.278 6.609 9.594 6.952 9.591.343-.003 3.352-4.297 6.685-9.543L358.582.89l6.837-.052 6.836-.053-9.253 13.825c-5.09 7.604-9.44 14.54-9.668 15.412-.228.873 3.7 7.858 8.73 15.522 5.03 7.664 9.145 14.138 9.145 14.387 0 .25-2.841.442-6.313.429l-6.314-.024-6.397-9.692-6.398-9.691-6.497 9.715-6.497 9.716h-13.077l3.692-5.809z" stroke="#29235c" stroke-width="1.01"/><path d="M280.57 267.465c0-2.5.197-3.523.438-2.273s.241 3.296 0 4.546c-.24 1.25-.437.227-.437-2.273z" stroke="#29235c" stroke-width="1.01"/><path d="M292.632 273.704c-.196-12.309-.065-13.43 1.543-13.12 1.37.264 2.193 2.623 3.728 10.681 1.084 5.688 2.252 10.342 2.595 10.342.344 0 1.512-4.654 2.596-10.342 1.535-8.058 2.358-10.417 3.728-10.68 1.598-.308 1.758.862 1.758 12.867 0 16.091-1.826 18.004-2.239 2.347-.316-11.958-.369-11.886-3.811 5.107-.735 3.626-1.638 5.715-2.367 5.472-.65-.215-2.062-5.014-3.14-10.663-1.079-5.648-2.313-10.27-2.744-10.27-.43 0-.93 4.886-1.108 10.859l-.325 10.86-.214-13.46z" stroke="#29235c" stroke-width="1.01"/><path d="M278.275 273.526v-13.132h5.05c2.779 0 5.052.455 5.052 1.01 0 .556-1.81 1.01-4.022 1.01-3.447 0-4.112.361-4.655 2.526-.349 1.389-.349 3.662 0 5.05.524 2.09 1.242 2.526 4.15 2.526 1.934 0 3.516.454 3.516 1.01s-1.59 1.01-3.535 1.01h-3.536v10.102h4.041c2.222 0 4.04.454 4.04 1.01 0 .555-2.272 1.01-5.05 1.01h-5.05v-13.132z" stroke="#29235c" stroke-width="1.01"/><path d="M264.168 284.704c-1.328-2.483-1.347-5.117-.035-5.117.556 0 1.01.886 1.01 1.97 0 2.583 2.92 4.22 5.277 2.96 3.168-1.696 2.137-5.726-2.751-10.756-4.639-4.772-5.519-7.642-3.5-11.413 1.198-2.24 6.88-2.716 8.853-.742 1.468 1.468 1.61 4.849.202 4.849-.555 0-1.01-.666-1.01-1.48 0-2.505-3.645-3.822-5.486-1.981-2.624 2.624-1.823 5.325 2.96 9.975 3.625 3.522 4.546 5.111 4.546 7.841 0 4.295-1.52 5.848-5.722 5.848-2.227 0-3.637-.635-4.343-1.954z" stroke="#29235c" stroke-width="1.01"/><path d="M312.62 285.02c0-.967 1.003-6.903 2.229-13.192 1.811-9.297 2.554-11.434 3.972-11.434 2.046 0 2.279.663 4.436 12.627.901 5 1.88 10.114 2.176 11.364.296 1.25.084 2.273-.472 2.273-.555 0-1.295-1.136-1.644-2.525-.543-2.165-1.208-2.526-4.655-2.526-3.307 0-4.021.348-4.021 1.96 0 1.08-.455 2.243-1.01 2.586-.556.343-1.01-.167-1.01-1.133zm8.226-13.514c-.847-4.445-1.816-8.082-2.152-8.082-.535 0-3.043 12.507-3.043 15.172 0 .545 1.515.99 3.367.99h3.368l-1.54-8.08z" stroke="#29235c" stroke-width="1.01"/><path d="M328.783 273.526c0-12.075.15-13.132 1.857-13.132 1.467 0 2.477 2.02 4.799 9.585 1.617 5.272 3.265 9.59 3.661 9.597.397.006.87-4.421 1.051-9.838.3-8.905.351-8.559.542 3.62.148 9.39-.123 13.357-.894 13.1-.608-.203-2.472-4.673-4.141-9.933-1.67-5.26-3.445-9.997-3.945-10.525-.543-.572-.91 3.402-.91 9.85 0 6.532-.4 10.808-1.01 10.808-.622 0-1.01-5.05-1.01-13.132z" stroke="#29235c" stroke-width="1.01"/><path d="M345 285.395c.03-.694 1.058-6.49 2.286-12.88 1.934-10.066 2.493-11.616 4.196-11.616 1.656 0 2.234 1.347 3.689 8.586 2.689 13.384 3.136 17.173 2.028 17.173-.55 0-1.147-1.023-1.324-2.273-.269-1.89-1.048-2.325-4.616-2.583-4.013-.29-4.294-.142-4.294 2.273 0 1.42-.454 2.583-1.01 2.583-.555 0-.985-.568-.955-1.263zm9.736-8.08c-.292-1.251-1.063-4.924-1.713-8.162-.651-3.239-1.422-5.65-1.714-5.358-.558.558-3.237 12.36-3.298 14.53-.022.783 1.348 1.262 3.61 1.262 3.263 0 3.59-.238 3.115-2.273z" stroke="#29235c" stroke-width="1.01"/><path d="M371.21 273.526c0-10.102 0-10.102 2.524-10.102 2.526 0 2.526 0 2.526 10.102s0 10.102-2.526 10.102c-2.525 0-2.525 0-2.525-10.102z" stroke="#29235c" stroke-width="1.01"/><path d="M368.179 273.526v-13.132h4.343c2.39 0 4.89.546 5.556 1.212 1.662 1.663 1.662 22.177 0 23.84-.667.666-3.167 1.212-5.556 1.212h-4.343v-13.132zm8.586 0v-10.607l-3.283-.316-3.283-.317v22.48l3.283-.317 3.283-.316v-10.607z" stroke="#29235c" stroke-width="1.01"/><path d="M387.624 274.85c.972-.254 2.563-.254 3.536 0 .972.254.176.462-1.768.462-1.945 0-2.74-.208-1.768-.462z" stroke="#29235c" stroke-width="1.01"/><path d="M388.13 274.877c.694-.28 1.83-.28 2.525 0 .694.28.126.51-1.263.51-1.39 0-1.957-.23-1.263-.51z" stroke="#29235c" stroke-width="1.01"/><path d="M387.624 271.82c.972-.255 2.563-.255 3.536 0 .972.254.176.461-1.768.461-1.945 0-2.74-.207-1.768-.461z" stroke="#29235c" stroke-width="1.01"/><path d="M383.33 273.526v-13.132h5.052c2.778 0 5.05.455 5.05 1.01 0 .556-1.818 1.01-4.04 1.01h-4.04v4.967c0 2.985.503 5.202 1.262 5.556 1.01.471 1.01.707 0 1.178-.76.354-1.263 2.57-1.263 5.556v4.967h4.04c2.223 0 4.041.454 4.041 1.01 0 .555-2.272 1.01-5.05 1.01h-5.051v-13.132z" stroke="#29235c" stroke-width="1.01"/><path d="M403.534 273.526v-13.132h5.05c2.779 0 5.052.455 5.052 1.01 0 .556-1.819 1.01-4.041 1.01h-4.04v10.101h3.535c1.944 0 3.535.455 3.535 1.011 0 .556-1.59 1.01-3.535 1.01h-3.536v10.102h4.04c2.223 0 4.042.454 4.042 1.01 0 .555-2.273 1.01-5.051 1.01h-5.051v-13.132z" stroke="#29235c" stroke-width="1.01"/><path d="M420.065 277.062c.003-5.556.173-7.7.377-4.765.205 2.936.203 7.481-.005 10.102-.207 2.62-.374.218-.372-5.337z" stroke="#29235c" stroke-width="1.01"/><path d="M417.676 273.452c0-11.937.167-13.174 1.735-12.872 1.21.233 2.659 3.228 4.798 9.923l3.064 9.589.289-9.849c.434-14.783 2.236-12.137 2.236 3.283 0 16.597-1.254 17.068-5.991 2.253l-3.466-10.84-.855 5.051c-.47 2.778-.592 7.665-.272 10.86.376 3.752.207 5.808-.478 5.808-.686 0-1.06-4.659-1.06-13.206z" stroke="#29235c" stroke-width="1.01"/><path d="M435.05 285.446c-1.662-1.663-1.662-22.177 0-23.84 1.975-1.974 7.656-1.498 8.855.742 1.332 2.49 1.353 6.127.035 6.127-.556 0-1.01-1.12-1.01-2.49 0-3.002-2.836-4.83-5.33-3.435-2.591 1.45-2.591 20.501 0 21.952 3.173 1.775 5.33-.433 5.33-5.456 0-3.335-.395-4.51-1.515-4.51-.834 0-1.516-.454-1.516-1.01s1.137-1.01 2.526-1.01c2.361 0 2.525.332 2.525 5.117 0 6.89-1.274 9.025-5.39 9.025-1.813 0-3.843-.546-4.51-1.212z" stroke="#29235c" stroke-width="1.01"/><path d="M448.99 273.526v-13.132h5.052c2.778 0 5.05.455 5.05 1.01 0 .556-1.818 1.01-4.04 1.01h-4.04v10.101h3.535c1.944 0 3.535.455 3.535 1.011 0 .556-1.59 1.01-3.535 1.01h-3.536v10.102h4.04c2.223 0 4.041.454 4.041 1.01 0 .555-2.272 1.01-5.05 1.01h-5.051v-13.132z" stroke="#29235c" stroke-width="1.01"/><path d="M463.133 273.526c0-16.726 1.386-17.457 6.23-3.283l3.366 9.849.29-9.849c.434-14.783 2.236-12.137 2.236 3.283 0 16.861-1.348 17.36-6.144 2.273l-3.453-10.86-.286 10.86c-.413 15.615-2.239 13.761-2.239-2.273z" stroke="#29235c" stroke-width="1.01"/><path d="M483.589 274.85c.972-.254 2.563-.254 3.535 0s.177.462-1.768.462c-1.944 0-2.74-.208-1.767-.462z" stroke="#29235c" stroke-width="1.01"/><path d="M479.295 273.526c0-8.081.389-13.132 1.01-13.132.562 0 1.01 2.694 1.01 6.06v6.062h7.072v-6.061c0-4.714.337-6.061 1.515-6.061 1.27 0 1.515 2.133 1.515 13.132 0 11-.246 13.132-1.515 13.132-1.177 0-1.515-1.34-1.515-6.001 0-6.494-.799-7.657-4.603-6.702-2.273.57-2.468 1.097-2.468 6.661 0 3.355-.45 6.042-1.01 6.042-.622 0-1.01-5.05-1.01-13.132z" stroke="#29235c" stroke-width="1.01"/><path d="M499.77 278.887c.983-.256 2.347-.24 3.03.037.685.277-.12.487-1.786.466-1.667-.02-2.227-.247-1.244-.503z" stroke="#29235c" stroke-width="1.01"/><path d="M499.751 281.921c.972-.254 2.563-.254 3.536 0 .972.254.176.462-1.768.462-1.945 0-2.74-.208-1.768-.462z" stroke="#29235c" stroke-width="1.01"/><path d="M494.767 284.385c.295-1.25 1.275-6.364 2.176-11.364 2.156-11.96 2.39-12.627 4.43-12.627 1.421 0 2.205 2.385 4.314 13.132 2.033 10.36 2.292 13.132 1.225 13.132-.77 0-1.353-1.09-1.353-2.525 0-1.39-.503-2.526-1.118-2.526-.615 0-.857-.68-.538-1.51.838-2.185-1.958-17.436-3.004-16.39-.24.24-1.075 3.79-1.856 7.89-1.083 5.684-1.138 7.643-.23 8.246.855.568.693 1.085-.577 1.833-.972.573-1.768 1.928-1.768 3.012 0 1.083-.504 1.97-1.12 1.97-.647 0-.892-.96-.581-2.273z" stroke="#29235c" stroke-width="1.01"/><path d="M511.62 273.526v-13.132h4.344c2.389 0 4.89.546 5.556 1.212 1.72 1.72 1.504 8.913-.329 10.938-1.38 1.526-1.38 1.835 0 2.981 1.742 1.446 2.204 11.133.53 11.133-.555 0-1.01-2.284-1.01-5.076 0-4.528-.28-5.183-2.61-6.068-3.751-1.426-4.46-.529-4.46 5.648 0 3.023-.455 5.496-1.01 5.496-.622 0-1.01-5.05-1.01-13.132zm7.457-1.303c1.302-.952 1.694-2.38 1.456-5.303-.302-3.695-.577-4.025-3.61-4.317l-3.282-.317v5.62c0 4.749.283 5.62 1.827 5.62 1.005 0 2.629-.586 3.609-1.303z" stroke="#29235c" stroke-width="1.01"/><path d="M526.773 273.526c0-8.081.388-13.132 1.01-13.132.621 0 1.01 5.05 1.01 13.132 0 8.081-.389 13.132-1.01 13.132-.622 0-1.01-5.05-1.01-13.132z" stroke="#29235c" stroke-width="1.01"/><path d="M556.067 273.526v-13.132h5.05c2.779 0 5.052.455 5.052 1.01 0 .556-1.819 1.01-4.041 1.01h-4.04v10.101h3.535c1.944 0 3.535.455 3.535 1.011 0 .556-1.59 1.01-3.535 1.01h-3.536v10.102h4.04c2.223 0 4.042.454 4.042 1.01 0 .555-2.273 1.01-5.051 1.01h-5.051v-13.132z" stroke="#29235c" stroke-width="1.01"/><path d="M532.897 285.395c.035-.694 1.073-6.49 2.306-12.88 1.904-9.864 2.542-11.66 4.23-11.904 1.782-.258 2.223.99 4.284 12.122 2.598 14.033 2.587 13.925 1.309 13.925-.517 0-1.086-1.023-1.263-2.273-.268-1.89-1.047-2.325-4.616-2.583-4.013-.29-4.293-.142-4.293 2.273 0 1.42-.455 2.583-1.01 2.583-.556 0-.982-.568-.947-1.263zm9.727-8.08c-.292-1.251-1.072-4.97-1.735-8.266-1.288-6.408-2.241-6.146-3.415.941a272.282 272.282 0 0 1-1.22 6.819c-.52 2.628-.35 2.778 3.175 2.778 3.347 0 3.671-.23 3.195-2.273z" stroke="#29235c" stroke-width="1.01"/><path d="M572.615 272.01c.002-6.666.166-9.262.363-5.768.198 3.494.197 8.949-.004 12.122-.2 3.173-.361.314-.36-6.353z" stroke="#29235c" stroke-width="1.01"/><path d="M572.576 272.01c.004-4.444.181-6.137.394-3.76.214 2.375.21 6.012-.007 8.08-.217 2.07-.391.125-.388-4.32z" stroke="#29235c" stroke-width="1.01"/><path d="M573.179 277.314c-.498-2.072-.245-10.86.313-10.86.417 0 .758 2.501.758 5.557 0 3.055-.228 5.556-.505 5.556-.278 0-.533-.114-.566-.253z" stroke="#29235c" stroke-width="1.01"/><path d="M575.02 283.923c1.256-.241 3.074-.232 4.04.02.966.253-.063.451-2.285.44-2.222-.011-3.012-.218-1.756-.46z" stroke="#29235c" stroke-width="1.01"/><path d="M570.21 273.526c0-7.223.369-13.132.82-13.132.452 0 .8 5.248.772 11.662-.054 12.765.466 13.971 5.73 13.29 1.529-.197 2.779.017 2.779.477 0 .46-2.273.835-5.051.835h-5.05v-13.132z" stroke="#29235c" stroke-width="1.01"/><path d="M583.341 273.526v-13.132h5.05c2.779 0 5.052.455 5.052 1.01 0 .556-1.819 1.01-4.041 1.01h-4.04v10.101h3.535c1.945 0 3.535.455 3.535 1.011 0 .556-1.59 1.01-3.535 1.01h-3.536v10.102h4.041c2.222 0 4.04.454 4.04 1.01 0 .555-2.272 1.01-5.05 1.01h-5.05v-13.132z" stroke="#29235c" stroke-width="1.01"/><path d="M603.93 275.041c.002-6.667.165-9.263.363-5.769.198 3.495.196 8.95-.004 12.122-.2 3.173-.362.314-.36-6.353z" stroke="#29235c" stroke-width="1.01"/><path d="M602.768 271.506c0-1.945.208-2.74.462-1.768.254.972.254 2.563 0 3.535-.254.973-.462.177-.462-1.767z" stroke="#29235c" stroke-width="1.01"/><path d="M600.9 275.041c.001-6.667.165-9.263.363-5.769.197 3.495.196 8.95-.004 12.122-.2 3.173-.362.314-.36-6.353z" stroke="#29235c" stroke-width="1.01"/><path d="M602.281 267.898c-.416-.423-.757-1.83-.757-3.127 0-1.84-.553-2.357-2.526-2.357-1.388 0-2.525-.454-2.525-1.01 0-.561 2.694-1.01 6.061-1.01s6.06.449 6.06 1.01c0 .556-1.107 1.01-2.46 1.01-2.01 0-2.52.574-2.778 3.127-.174 1.72-.658 2.78-1.075 2.357z" stroke="#29235c" stroke-width="1.01"/><path d="M601.643 284.89c.066-.972.467-3.131.891-4.798.688-2.705.784-2.515.89 1.768.066 2.639-.334 4.798-.89 4.798s-.956-.796-.89-1.768z" stroke="#29235c" stroke-width="1.01"/><path d="M588.392 256.537c0-1.221 1.916-2.644 2.617-1.944.254.254-.23 1.037-1.077 1.74-.96.797-1.54.874-1.54.204z" stroke="#29235c" stroke-width="1.01"/><path d="M614.466 274.856c.73-.292 1.6-.256 1.937.08.335.336-.261.574-1.326.53-1.177-.048-1.416-.287-.61-.61z" stroke="#29235c" stroke-width="1.01"/><path d="M611.625 273.526v-13.132h4.344c2.39 0 4.89.546 5.556 1.212 1.72 1.72 1.504 8.913-.329 10.938-1.38 1.526-1.38 1.835 0 2.981 1.743 1.446 2.204 11.133.53 11.133-.555 0-1.01-2.257-1.01-5.015 0-4.108-.395-5.227-2.184-6.185l-2.186-1.17 2.258-1.702c1.797-1.356 2.191-2.517 1.933-5.685-.3-3.674-.579-4.006-3.608-4.298l-3.283-.317v12.186c0 7.45-.393 12.186-1.01 12.186-.622 0-1.01-5.05-1.01-13.132z" stroke="#29235c" stroke-width="1.01"/><path d="M626.778 273.526c0-8.081.388-13.132 1.01-13.132.621 0 1.01 5.05 1.01 13.132 0 8.081-.389 13.132-1.01 13.132-.622 0-1.01-5.05-1.01-13.132z" stroke="#29235c" stroke-width="1.01"/><path d="M634.426 285.07c-1.22-1.22-1.587-3.806-1.587-11.177 0-11.451.83-13.499 5.467-13.499 4.09 0 5.92 1.945 5.408 5.747l-.381 2.84-.857-3.031c-1.3-4.595-3.375-5.613-6.03-2.958-1.19 1.19-1.587 3.7-1.587 10.018 0 10.304.452 11.628 3.97 11.628 2.31 0 2.913-.6 3.805-3.788l1.061-3.788.128 3.586c.07 1.972-.418 4.131-1.085 4.798-1.716 1.716-6.433 1.503-8.312-.375z" stroke="#29235c" stroke-width="1.01"/><path d="M652.562 274.284c1.15-6.98 2.064-7.362 3.159-1.322 1.005 5.545.987 5.615-1.425 5.615-2.31 0-2.404-.231-1.734-4.293z" stroke="#29235c" stroke-width="1.01"/><path d="M652.284 281.921c.972-.254 2.563-.254 3.536 0 .972.254.176.462-1.768.462-1.945 0-2.74-.208-1.768-.462z" stroke="#29235c" stroke-width="1.01"/><path d="M647.988 285.455c-.002-.727.987-6.664 2.197-13.192 1.82-9.814 2.508-11.869 3.976-11.869 2.099 0 2.217.35 4.892 14.446 2.404 12.674 2.32 11.818 1.17 11.818-.496 0-1.179-1.106-1.518-2.458-1.058-4.214-8.694-4.71-8.694-.564 0 1.04-.454 2.174-1.01 2.517-.556.343-1.012.03-1.013-.698zm8.473-13.192c-.768-4.028-1.397-7.755-1.398-8.283-.003-2.8-1.881 1.709-2.89 6.937-1.647 8.543-1.614 8.67 2.267 8.67h3.418l-1.397-7.324z" stroke="#29235c" stroke-width="1.01"/></svg>