<?xml version="1.0" encoding="UTF-8" standalone="no"?>
<!-- Created with Inkscape (http://www.inkscape.org/) -->

<svg
   xmlns:dc="http://purl.org/dc/elements/1.1/"
   xmlns:cc="http://creativecommons.org/ns#"
   xmlns:rdf="http://www.w3.org/1999/02/22-rdf-syntax-ns#"
   xmlns:svg="http://www.w3.org/2000/svg"
   xmlns="http://www.w3.org/2000/svg"
   xmlns:sodipodi="http://sodipodi.sourceforge.net/DTD/sodipodi-0.dtd"
   xmlns:inkscape="http://www.inkscape.org/namespaces/inkscape"
   width="186.78568mm"
   height="88.706627mm"
   viewBox="0 0 661.839 314.31482"
   id="svg4444"
   version="1.1"
   inkscape:version="0.91 r13725"
   sodipodi:docname="see.svg">
  <defs
     id="defs4446" />
  <sodipodi:namedview
     id="base"
     pagecolor="#181c24"
     bordercolor="#666666"
     borderopacity="1.0"
     inkscape:pageopacity="0"
     inkscape:pageshadow="2"
     inkscape:zoom="0.98994949"
     inkscape:cx="471.41623"
     inkscape:cy="271.50766"
     inkscape:document-units="px"
     inkscape:current-layer="layer1"
     showgrid="false"
     inkscape:snap-object-midpoints="false"
     inkscape:snap-center="false"
     inkscape:window-width="1920"
     inkscape:window-height="1079"
     inkscape:window-x="0"
     inkscape:window-y="0"
     inkscape:window-maximized="1"
     fit-margin-top="0"
     fit-margin-left="0"
     fit-margin-right="0"
     fit-margin-bottom="0" />
  <metadata
     id="metadata4449">
    <rdf:RDF>
      <cc:Work
         rdf:about="">
        <dc:format>image/svg+xml</dc:format>
        <dc:type
           rdf:resource="http://purl.org/dc/dcmitype/StillImage" />
        <dc:title />
      </cc:Work>
    </rdf:RDF>
  </metadata>
  <g
     inkscape:groupmode="layer"
     id="layer2"
     inkscape:label="Camada 2"
     transform="translate(-52.459693,-377.07891)" />
  <g
     inkscape:label="Camada 1"
     inkscape:groupmode="layer"
     id="layer1"
     transform="translate(-52.459693,-377.07891)">
    <g
       id="g5615">
      <g
         id="g16101">
        <path
           inkscape:connector-curvature="0"
           style="fill:#ffffff;fill-opacity:1;fill-rule:evenodd;stroke:none"
           d="m 184.98828,409.16797 c -12.97875,0.1125 -25.35711,3.07633 -36.41211,8.48633 -23.05125,11.28375 -40.2932,32.81875 -45.8457,64.15625 -5.551256,31.33875 2.75484,65.86484 21.08984,93.96484 9.15125,14.02875 20.64531,26.46422 33.78907,36.29297 12.99375,9.7225 27.73476,16.9925 42.97851,20.78125 15.25,3.79375 29.45781,3.91664 42.53906,1.11914 11.65515,-2.49574 22.23033,-7.41106 31.3711,-14.25391 -4.00843,-3.17135 -7.7434,-6.78659 -11.1543,-10.86523 -16.46089,10.61712 -37.45613,14.47196 -61.01758,8.35156 -26.28,-6.82625 -50.23078,-25.4339 -65.89453,-49.53515 C 120.76789,543.56477 113.44875,513.87633 118,486.83008 c 4.55125,-27.04125 19.29531,-45.98031 39.00781,-56.03906 18.945,-9.66875 42.76031,-10.48055 66.07031,-1.31055 18.39333,7.23698 34.0702,19.4234 46.35352,34.43164 1.78976,-3.2743 3.86943,-6.33721 6.22656,-9.1582 -4.73092,-5.61039 -9.86892,-10.86734 -15.3789,-15.64844 -10.6,-9.19875 -22.56735,-16.78875 -35.83985,-22.125 -13.27125,-5.3325 -26.77617,-7.915 -39.45117,-7.8125 z"
           id="path14049" />
        <path
           inkscape:connector-curvature="0"
           style="fill:#127bca;fill-opacity:1;fill-rule:evenodd;stroke:none"
           d="m 99.050781,543.77734 c 4.896409,14.98466 12.224369,29.34547 21.546879,42.35352 3.58896,5.00552 7.94887,9.90915 12.76953,14.60547 l -25.16407,23.33398 C 101.90528,617.94463 96.231172,611.54242 91.599609,604.99805 79.693605,588.1784 70.433185,569.59692 64.388672,550.14648 l 34.662109,-6.36914 z"
           id="path14043" />
        <path
           inkscape:connector-curvature="0"
           style="fill:#ffffff;fill-opacity:1;fill-rule:evenodd;stroke:none"
           d="m 173.0293,383.77148 c -5.93051,-0.0137 -11.83774,0.29549 -17.47461,1.00196 l 8.71484,19.46679 c 8.32963,-1.19539 17.39098,-1.35321 26.04492,-0.79882 3.08217,0.19801 5.92191,0.41937 8.63867,0.67773 l -2.56445,-18.88672 c -3.20809,-0.34763 -6.56272,-0.65339 -10.20508,-0.93164 -4.32749,-0.33187 -8.74695,-0.51908 -13.15429,-0.5293 z"
           id="path14071" />
        <path
           inkscape:connector-curvature="0"
           style="fill:#ffffff;fill-opacity:1;fill-rule:evenodd;stroke:none"
           d="m 148.47266,385.91211 c -4.28837,0.85163 -8.33729,1.97604 -12.00977,3.42383 -10.43266,4.10793 -20.12925,9.89237 -28.73633,17.2539 l 16.33399,16.95704 c 7.31927,-6.50072 15.60594,-11.63748 24.55468,-15.30079 2.9483,-1.2083 6.18832,-2.17037 9.61719,-2.92382 l -9.75976,-19.41016 z"
           id="path14069" />
        <path
           inkscape:connector-curvature="0"
           style="fill:#ffffff;fill-opacity:1;fill-rule:evenodd;stroke:none"
           d="m 202.87305,386.03906 1.6875,18.70313 c 7.32924,0.97789 13.73116,2.51067 20.64257,5.32617 10.99127,4.4725 5.78593,2.52398 8.61719,3.89648 0.17172,-1.67754 0.3453,-3.32591 0.51953,-4.99414 -0.58787,-0.70773 -1.14536,-1.44061 -1.66015,-2.20312 -2.78551,-4.12475 -4.37047,-8.98764 -4.41602,-13.72461 -0.49386,-0.20798 -0.56178,-0.24053 -1.13281,-0.48047 -7.99569,-3.35487 -15.54038,-5.25304 -24.25781,-6.52344 z"
           id="path14081" />
        <path
           inkscape:connector-curvature="0"
           style="fill:#ffffff;fill-opacity:1;fill-rule:evenodd;stroke:none"
           d="m 263.27344,413.90234 c -0.27231,0.24865 -0.53891,0.50306 -0.82813,0.73047 -1.88585,1.48228 -4.11537,2.53958 -6.5957,3.05274 -0.21381,0.0442 -0.43154,0.0789 -0.64844,0.11523 -0.26606,2.92756 -0.53647,5.82148 -0.80078,8.77149 9.2792,6.90674 17.74969,14.97118 25.24805,23.86523 3.51491,-3.43009 7.47515,-6.4226 11.78711,-8.95508 -8.36126,-10.19604 -17.81561,-19.50978 -28.16211,-27.58008 z"
           id="path14079" />
        <path
           inkscape:connector-curvature="0"
           style="fill:#ffffff;fill-opacity:1;fill-rule:evenodd;stroke:none"
           d="m 240.07031,414.14648 c -0.15231,1.5287 -0.30286,3.01921 -0.45508,4.55274 -1.3425,13.51125 -2.73828,27.23289 -4.14453,41.21289 -0.29375,0.0875 -0.60539,0.13552 -0.86914,0.19922 -15.6975,3.2325 -31.91859,6.5732 -48.65234,9.9707 -0.65875,0.1425 -1.28352,0.26266 -1.94727,0.41016 0.0975,-0.71375 0.19938,-1.42617 0.29688,-2.13867 0.9325,-7.16375 1.85578,-14.26383 2.76953,-21.29883 -6.08374,-2.28125 -12.17259,-4.52649 -18.33008,-6.86524 -2.495,17.5 -5.0057,35.30289 -7.56445,53.43164 -0.0975,0.655 -0.19441,1.3083 -0.28321,1.89453 -0.64875,-0.20999 -1.30257,-0.42 -1.92382,-0.625 -17.22625,-5.7375 -34.8493,-11.6114 -52.8418,-17.59765 -6.03267,-2.00598 -12.386137,-4.10758 -18.521484,-6.14063 0.274474,1.8355 0.393559,3.70133 0.289062,5.58594 -0.113926,2.0533 -0.479222,4.00914 -1.05664,5.83399 5.736176,1.85898 11.696786,3.78871 17.335942,5.62109 18.16997,5.9075 35.9364,11.69898 53.22265,17.33398 0.65875,0.205 1.31344,0.40946 1.99219,0.65821 -0.11625,0.615 -0.21586,1.26422 -0.31836,1.91797 -2.68,18.95125 -5.41016,38.22476 -8.22266,57.85351 6.70875,1.91875 13.29758,3.81149 19.92383,5.67774 1.05499,-8.0375 2.09478,-15.98204 3.13477,-23.92579 0.0775,-0.78125 0.18461,-1.55718 0.28711,-2.30468 0.23875,0.24 0.50695,0.48781 0.75195,0.72656 0.22875,0.26875 0.47484,0.50867 0.77734,0.73242 0.0775,0.0888 0.15578,0.18144 0.23828,0.24024 6.02125,5.9125 12.04063,11.79617 18.04688,17.60742 -3.2375,4.09625 -6.45109,8.17976 -9.74609,12.29101 7.10875,1.9625 14.15084,3.96868 21.09961,5.95117 3.43249,0.98127 6.89367,1.96797 10.32617,2.94922 2.115,2.085 4.23384,4.19375 6.39257,6.25 -1.68,16.47375 -3.37164,33.29985 -5.11914,50.3711 -0.38963,3.80375 -0.80157,7.77021 -1.19726,11.60547 0.48435,-0.0407 0.97193,-0.07 1.46484,-0.0742 2.82998,-0.0229 5.84551,0.55354 8.8086,1.74414 0.0752,0.0302 0.14786,0.0648 0.22265,0.0957 0.82726,-8.50069 1.81463,-18.56613 2.52344,-25.93945 1.82125,-18.90625 3.25672,-33.75485 3.98047,-41.3086 -3.6725,-3.57375 -7.35985,-7.17343 -11.02734,-10.83593 -1.3575,-3.6475 -2.70993,-7.25994 -4.07618,-10.95117 -2.725,-7.30877 -5.42992,-14.57071 -8.07617,-21.84571 -3.07625,3.89125 -6.2,7.81844 -9.28125,11.77344 -7.53,-7.38375 -15.09367,-14.8 -22.70117,-22.28125 -0.61625,-0.55625 -1.20055,-1.10273 -1.74805,-1.70898 0.1025,-0.74127 0.18071,-1.52704 0.28321,-2.26954 2.05,-15.65875 4.08609,-31.0175 6.05859,-46.125 0.0988,-0.7125 0.20133,-1.4242 0.29883,-2.13672 21.40125,-4.65375 41.92898,-9.0832 61.70898,-13.3457 1.42999,-14.94625 2.79156,-29.55695 4.16406,-43.9707 0.22928,-2.42241 0.45204,-4.7716 0.68165,-7.18164 -0.4812,-0.0809 -0.96654,-0.17265 -1.45899,-0.29102 -2.6414,-0.63431 -5.20333,-1.79276 -7.51758,-3.33008 z"
           id="path14067" />
        <path
           inkscape:connector-curvature="0"
           style="fill:#ffffff;fill-opacity:1;fill-rule:evenodd;stroke:none"
           d="m 102.29688,411.5957 c -1.12432,1.1138 -2.23204,2.25039 -3.310552,3.42383 -9.324752,10.13799 -16.939542,22.48502 -22.210937,36.81055 0.05774,0.0494 0.120349,0.0928 0.177734,0.14258 2.34185,2.03207 4.390477,4.44101 6.060547,7.06836 0.722583,1.13704 1.362468,2.32385 1.941406,3.5371 4.031131,1.35899 8.094723,2.7276 12.091797,4.07618 4.707875,-15.5019 12.504405,-28.5163 22.451175,-38.73828 L 102.29688,411.5957 Z"
           id="path14065" />
        <path
           inkscape:connector-curvature="0"
           style="fill:#127bca;fill-opacity:1;fill-rule:evenodd;stroke:none"
           d="m 83.224609,489.32227 c -0.763052,0.92997 -1.60118,1.77964 -2.517578,2.52539 -2.16825,1.76385 -4.732234,3.02217 -7.583984,3.63281 -2.92068,0.62461 -6.093147,0.59704 -9.498047,-0.25 -2.488752,-0.61856 -4.915701,-1.65761 -7.175781,-3.01758 -0.645946,16.53678 1.30771,33.28461 5.583984,49.69141 L 97.125,537.38672 c -4.09759,-14.77833 -5.824396,-30.04971 -4.759766,-45.14063 -3.003917,-0.96189 -6.110823,-1.95491 -9.140625,-2.92382 z"
           id="path14059" />
        <path
           inkscape:connector-curvature="0"
           style="fill:#127bca;fill-opacity:1;fill-rule:evenodd;stroke:none"
           d="m 137.91211,604.97852 -23.80859,24.58593 c 9.77861,8.74098 20.65983,16.78613 31.40625,23.66211 19.8675,12.71 33.81734,20.28781 50.12109,23.85156 1.54238,0.33774 1.91483,0.41273 3.0293,0.6543 -0.2802,-2.51219 -0.22935,-5.02856 0.20117,-7.45898 1.17208,-6.61505 4.67788,-11.26901 9.40625,-13.88672 0.44812,-4.22453 0.91135,-8.52024 1.35351,-12.70703 -3.32,-0.46875 2.72461,1.12359 -10.02539,-1.97266 -12.74875,-3.095 -23.26015,-9.00781 -38.28515,-18.85156 -7.98738,-5.23616 -16.0795,-11.3074 -23.39844,-17.87695 z"
           id="path14057" />
        <path
           inkscape:connector-curvature="0"
           style="fill:#ffffff;fill-opacity:1;fill-rule:evenodd;stroke:none"
           d="m 281.71289,624.7793 c -13.02788,10.82179 -29.18395,17.78994 -47.36523,19.5664 -0.49096,5.10176 -0.96815,10.3028 -1.44727,15.48242 0.38168,0.3007 0.76967,0.59359 1.13672,0.91211 2.14905,1.86478 4.03561,4.05648 5.625,6.4336 25.40042,-3.37727 47.14756,-15.34643 63.1582,-33.17188 -7.47034,-2.12181 -14.5672,-5.17517 -21.10742,-9.22265 z"
           id="path3358-0" />
        <path
           inkscape:connector-curvature="0"
           id="path3356-3-5"
           style="fill:#127bca;fill-opacity:1;fill-rule:evenodd;stroke:none"
           d="m 224.84847,664.24355 c 1.64602,0.66179 3.1302,1.60293 4.44479,2.74373 1.30079,1.12873 2.43928,2.46704 3.36692,3.9264 1.85299,2.91582 2.90357,6.32631 2.70934,9.82951 -0.1944,3.50364 -1.67875,6.51093 -3.99136,8.3929 -1.20437,0.97973 -2.6281,1.67857 -4.21212,2.01776 -1.6223,0.34694 -3.38444,0.33175 -5.2757,-0.13875 -1.89051,-0.46986 -3.71868,-1.37147 -5.33014,-2.57724 -1.63005,-1.21894 -3.05549,-2.76125 -4.1904,-4.50106 -2.27387,-3.48491 -3.30384,-7.76677 -2.61538,-11.65334 0.6886,-3.8864 2.82683,-6.55696 5.6856,-7.95635 1.37101,-0.67094 2.90604,-1.03849 4.51563,-1.05246 1.57193,-0.0127 3.24694,0.30758 4.89282,0.9689 z"
           sodipodi:nodetypes="ccccccccccccc" />
        <path
           inkscape:connector-curvature="0"
           id="path3356-3-3-4"
           style="fill:#127bca;fill-opacity:1;fill-rule:evenodd;stroke:none"
           d="m 67.76459,455.47661 c 1.64602,0.66179 3.1302,1.60293 4.44479,2.74373 1.30079,1.12873 2.43928,2.46704 3.36692,3.9264 1.85299,2.91582 2.90357,6.32631 2.70934,9.82951 -0.1944,3.50364 -1.67875,6.51093 -3.99136,8.3929 -1.20437,0.97973 -2.6281,1.67857 -4.21212,2.01776 -1.6223,0.34694 -3.38444,0.33175 -5.2757,-0.13875 -1.89051,-0.46986 -3.71868,-1.37147 -5.33014,-2.57724 -1.63005,-1.21894 -3.05549,-2.76125 -4.1904,-4.50106 -2.27387,-3.48491 -3.30384,-7.76677 -2.61538,-11.65334 0.6886,-3.8864 2.82683,-6.55696 5.6856,-7.95635 1.37101,-0.67094 2.90604,-1.03849 4.51563,-1.05246 1.57193,-0.0127 3.24694,0.30758 4.89282,0.9689 z"
           sodipodi:nodetypes="ccccccccccccc" />
        <path
           inkscape:connector-curvature="0"
           id="path3356-3-2-6"
           style="fill:#127bca;fill-opacity:1;fill-rule:evenodd;stroke:none"
           d="m 251.18838,384.06841 c 1.43164,0.55615 2.72252,1.34705 3.86589,2.30574 1.13138,0.94855 2.12159,2.07322 2.92841,3.29962 1.61166,2.45037 2.52541,5.31643 2.35648,8.26041 -0.16908,2.94435 -1.46011,5.47158 -3.47152,7.05313 -1.04752,0.82333 -2.28582,1.41061 -3.66354,1.69566 -1.41101,0.29155 -2.94365,0.27879 -4.58859,-0.1166 -1.64429,-0.39486 -3.23435,-1.15254 -4.63594,-2.16583 -1.41775,-1.02436 -2.65754,-2.32047 -3.64464,-3.78255 -1.97772,-2.92861 -2.87354,-6.52695 -2.27475,-9.7931 0.59892,-3.266 2.45866,-5.51026 4.94511,-6.68626 1.19244,-0.56384 2.52755,-0.87271 3.92751,-0.88445 1.3672,-0.0107 2.82406,0.25848 4.25558,0.81423 z"
           sodipodi:nodetypes="ccccccccccccc" />
      </g>
      <g
         id="g14059">
        <path
           inkscape:connector-curvature="0"
           id="path3364-3"
           style="fill:#127bca;fill-opacity:1;fill-rule:nonzero;stroke:none"
           d="m 336.62744,591.10266 c -2.08999,0.36125 -4.33499,0.55125 -6.72375,0.55125 -15.53125,0 -24.985,-7.3725 -32.07499,-17.5 l -26.33751,21.21625 c 11.48,16.20625 31.06375,27.685 59.42876,27.685 10.1025,0 19.46749,-1.60625 27.6175,-4.73125 l -21.91001,-27.22125 z" />
        <path
           inkscape:connector-curvature="0"
           id="path3366-7"
           style="fill:#ffffff;fill-opacity:1;fill-rule:nonzero;stroke:none"
           d="m 342.39995,517.93391 -8.78,-3.71625 c -15.195,-6.7525 -21.94875,-10.80625 -21.94875,-21.5525 0,-8.4425 6.75375,-15.1375 17.2225,-15.1375 9.11625,0 15.19,3.32125 20.9325,12.1 l 25.3225,-20.87875 c -11.1425,-15.86875 -26.33375,-22.285 -46.255,-22.285 -31.74375,0 -52.0025,20.25875 -52.0025,46.875 0,28.98375 16.885,42.43625 42.54375,53.52 l 8.78,3.71625 c 16.21125,7.09 26.00124,11.48 26.00124,23.57875 0,3.4625 -1.10375,6.60125 -3.14999,9.23375 l 21.685,26.94875 c 10.55624,-8.39375 16.91875,-20.81125 16.91875,-36.85625 0,-29.60375 -16.885,-42.77375 -47.27,-55.54625" />
        <path
           inkscape:connector-curvature="0"
           id="path3368-4"
           style="fill:#ffffff;fill-opacity:1;fill-rule:nonzero;stroke:none"
           d="m 578.96245,481.23891 81.37625,0 0,-34.775 -116.1525,0 0,176.59125 116.1525,0 0,-34.775 -81.37625,0 0,-36.1325 51.665,0 0,-34.77625 -51.665,0 0,-36.1325 z" />
        <path
           inkscape:connector-curvature="0"
           id="path3370-5"
           style="fill:#ffffff;fill-opacity:1;fill-rule:nonzero;stroke:none"
           d="m 443.62994,481.23891 81.3725,0 0,-34.775 -116.1525,0 0,176.59125 116.1525,0 0,-34.775 -81.3725,0 0,-36.1325 51.66001,0 0,-34.77625 -51.66,0 0,-36.1325 z" />
        <path
           inkscape:connector-curvature="0"
           id="path3372-2"
           style="fill:#127bca;fill-opacity:1;fill-rule:evenodd;stroke:none"
           d="m 679.5187,588.28016 34.78,0 0,34.775 -34.78,0 0,-34.775 z" />
      </g>
      <path
         d="m 321.2612,636.57141 c -4.12125,0 -6.07876,2.63125 -6.07876,6.865 0,7.73 9.17501,8.315 9.17501,14.43375 0,2.475 -1.02,3.92625 -3.2125,3.92625 -2.1975,0 -3.21875,-1.45125 -3.21875,-3.92625 l 0,-1.72375 -2.86625,0 0,1.5675 c 0,4.16 1.96375,6.865 6.1625,6.865 4.195,0 6.19625,-2.705 6.19625,-6.865 0,-7.725 -9.21875,-8.315 -9.21875,-14.4725 0,-2.4325 0.9425,-3.8825 3.14,-3.8825 2.1975,0 3.135,1.45 3.135,3.92125 l 0,0.90375 2.905,0 0,-0.7475 c 0,-4.155 -1.9625,-6.865 -6.11875,-6.865 z m 11.88499,12.43625 0,-9.375 8.23751,0 0,-2.78375 -11.29875,0 0,27.45625 11.29875,0 0,-2.7825 -8.23751,0 0,-9.77125 6.70376,0 0,-2.74375 -6.70376,0 z m 25.5325,-6.7875 0,22.085 2.905,0 0,-27.45625 -4.2775,0 -4.35,21.925 -4.5125,-21.925 -4.27625,0 0,27.45625 2.665,0 0,-21.88875 4.55125,21.85 2.94375,0 4.35125,-22.04625 z m 16.08375,16.55375 1.06,5.53125 3.06125,0 -5.25875,-27.45625 -4.43375,0 -5.25375,27.45625 2.8225,0 1.05875,-5.53125 6.94375,0 z m -3.52999,-18.4725 3.1,15.845 -6.1175,0 3.0175,-15.845 z m 12.74874,1.8025 7.02125,22.20125 3.17875,0 0,-27.45625 -2.71,0 0,19.84375 -6.3525,-19.84375 -3.88125,0 0,27.45625 2.74375,0 0,-22.20125 z m 23.37876,16.67 1.06,5.53125 3.05624,0 -5.25375,-27.45625 -4.43375,0 -5.25375,27.45625 2.8225,0 1.06,-5.53125 6.9425,0 z m -3.53,-18.4725 3.09625,15.845 -6.11875,0 3.0225,-15.845 z m 16.1225,-3.4525 0,27.45625 6.43125,0 c 4.27749,0 6.235,-2.5875 6.235,-6.78625 l 0,-13.8475 c 0,-4.23375 -1.9575,-6.8225 -6.235,-6.8225 l -6.43125,0 z m 3.0575,24.67375 0,-21.89 3.295,0 c 2.2375,0 3.29625,1.3725 3.29625,3.8825 l 0,14.12 c 0,2.51 -1.05875,3.8875 -3.25625,3.8875 l -3.335,0 z m 15.5325,-12.515 0,-9.375 8.23625,0 0,-2.78375 -11.29375,0 0,27.45625 11.29375,0 0,-2.7825 -8.23625,0 0,-9.77125 6.70875,0 0,-2.74375 -6.70875,0 z m 20.2,0 0,-9.375 8.2375,0 0,-2.78375 -11.295,0 0,27.45625 11.295,0 0,-2.7825 -8.2375,0 0,-9.77125 6.70875,0 0,-2.74375 -6.70875,0 z m 13.76875,-6.90375 7.0225,22.20125 3.17875,0 0,-27.45625 -2.70625,0 0,19.84375 -6.35625,-19.84375 -3.8825,0 0,27.45625 2.74375,0 0,-22.20125 z m 19.25875,-5.5325 c -4.195,0 -6.1575,2.74875 -6.1575,6.90375 l 0,14.2 c 0,4.16 1.9625,6.90375 6.1575,6.90375 4.2375,0 6.20125,-2.74375 6.20125,-6.90375 l 0,-8.08125 -5.72875,0 0,2.74875 2.8225,0 0,5.48875 c 0,2.475 -0.97625,3.965 -3.2125,3.965 -2.1975,0 -3.2175,-1.49 -3.2175,-3.965 l 0,-14.5125 c 0,-2.47 1.02,-3.96 3.2175,-3.96 2.23625,0 3.2125,1.49 3.2125,3.96 l 0,2.51 2.90625,0 0,-2.35375 c 0,-4.155 -1.96375,-6.90375 -6.20125,-6.90375 z m 12.1625,12.43625 0,-9.375 8.2375,0 0,-2.78375 -11.29875,0 0,27.45625 11.29875,0 0,-2.7825 -8.2375,0 0,-9.77125 6.70875,0 0,-2.74375 -6.70875,0 z m 13.77,-6.90375 7.02125,22.20125 3.17375,0 0,-27.45625 -2.705,0 0,19.84375 -6.3525,-19.84375 -3.8875,0 0,27.45625 2.75,0 0,-22.20125 z m 23.13875,9.84375 0,12.3575 3.0625,0 0,-27.45625 -3.0625,0 0,12.35375 -6.7475,0 0,-12.35375 -3.05625,0 0,27.45625 3.05625,0 0,-12.3575 6.7475,0 z m 16.24125,6.82625 1.05875,5.53125 3.06125,0 -5.25875,-27.45625 -4.4325,0 -5.255,27.45625 2.8225,0 1.06,-5.53125 6.94375,0 z m -3.53125,-18.4725 3.10125,15.845 -6.12375,0 3.0225,-15.845 z m 10.045,-3.4525 0,27.45625 3.05625,0 0,-11.7275 2.1575,0 c 2.54875,0 4,0.98125 4,4.07625 l 0,4.31625 c 0,1.84625 0.15625,2.54875 0.5125,3.335 l 3.095,0 c -0.5075,-0.9425 -0.54625,-2.08 -0.54625,-3.295 l 0,-4.2725 c 0,-2.945 -0.9425,-4.98625 -3.4525,-5.7275 2.35375,-0.7475 3.41375,-2.6325 3.41375,-5.65 l 0,-2.23625 c 0,-4.0775 -1.8075,-6.275 -6.11875,-6.275 l -6.1175,0 z m 3.05625,12.945 0,-10.16125 2.98375,0 c 2.275,0 3.17375,1.29375 3.17375,3.765 l 0,2.62625 c 0,2.98375 -1.45125,3.77 -3.8825,3.77 l -2.275,0 z m 12.3975,-12.945 0,27.45625 3.05625,0 0,-27.45625 -3.05625,0 z m 16.235,21.925 1.06,5.53125 3.06125,0 -5.25875,-27.45625 -4.42875,0 -5.25875,27.45625 2.8275,0 1.05875,-5.53125 6.93875,0 z m -3.53,-18.4725 3.1,15.845 -6.1175,0 3.0175,-15.845 z m 19.185,8.70625 0,-9.375 8.23625,0 0,-2.78375 -11.29875,0 0,27.45625 11.29875,0 0,-2.7825 -8.23625,0 0,-9.77125 6.70375,0 0,-2.74375 -6.70375,0 z m 21.9625,15.2975 0,-2.7825 -7.8425,0 0,-24.67375 -3.06125,0 0,27.45625 10.90375,0 z m 8.8275,-33.0275 -2.74375,4.03875 2.11375,0 3.6475,-4.03875 -3.0175,0 z m -3.45125,17.73 0,-9.375 8.23625,0 0,-2.78375 -11.29875,0 0,27.45625 11.29875,0 0,-2.7825 -8.23625,0 0,-9.77125 6.70875,0 0,-2.74375 -6.70875,0 z m 18.12,15.2975 0,-24.6725 5.06375,0 0,-2.78375 -13.18375,0 0,2.78375 5.0625,0 0,24.6725 3.0575,0 z m 7.1775,-27.45625 0,27.45625 3.06125,0 0,-11.7275 2.15875,0 c 2.54875,0 3.99875,0.98125 3.99875,4.07625 l 0,4.31625 c 0,1.84625 0.15625,2.54875 0.5125,3.335 l 3.09625,0 c -0.50875,-0.9425 -0.5475,-2.08 -0.5475,-3.295 l 0,-4.2725 c 0,-2.945 -0.9425,-4.98625 -3.4525,-5.7275 2.35375,-0.7475 3.41375,-2.6325 3.41375,-5.65 l 0,-2.23625 c 0,-4.0775 -1.80625,-6.275 -6.11875,-6.275 l -6.1225,0 z m 3.06125,12.945 0,-10.16125 2.98375,0 c 2.27,0 3.17375,1.29375 3.17375,3.765 l 0,2.62625 c 0,2.98375 -1.45,3.77 -3.8825,3.77 l -2.275,0 z m 12.3925,-12.945 0,27.45625 3.06125,0 0,-27.45625 -3.06125,0 z m 12.12375,-0.2775 c -4.19875,0 -6.15625,2.74875 -6.15625,6.90375 l 0,14.2 c 0,4.16 1.9575,6.90375 6.15625,6.90375 4.23375,0 6.19625,-2.74375 6.19625,-6.90375 l 0,-3.41375 -2.9,0 0,3.57 c 0,2.475 -0.98125,3.965 -3.2175,3.965 -2.1975,0 -3.2175,-1.49 -3.2175,-3.965 l 0,-14.5125 c 0,-2.47 1.02,-3.96 3.2175,-3.96 2.23625,0 3.2175,1.49 3.2175,3.96 l 0,2.6275 2.9,0 0,-2.47125 c 0,-4.155 -1.9625,-6.90375 -6.19625,-6.90375 z m 19.02375,22.2025 1.06,5.53125 3.05625,0 -5.25375,-27.45625 -4.43375,0 -5.25375,27.45625 2.8225,0 1.05875,-5.53125 6.94375,0 z m -3.53,-18.4725 3.095,15.845 -6.1175,0 3.0225,-15.845 z"
         style="fill:#ffffff;fill-opacity:1;fill-rule:nonzero;stroke:none"
         id="path3374-5"
         inkscape:connector-curvature="0" />
      <path
         d="m 411.2612,377.07891 -13.0225,19.785 -13.13375,-19.785 -14.42875,0 20.2925,30.79125 -20.17625,30.55125 14.42875,0 13.0175,-19.6625 12.90625,19.6625 14.42375,0 -20.17125,-30.55125 20.2875,-30.79125 -14.42375,0 z"
         style="fill:#ffffff;fill-opacity:1;fill-rule:nonzero;stroke:none"
         id="path3376-7"
         inkscape:connector-curvature="0" />
      <path
         d="m 328.47869,411.20016 -17.97375,27.22125 14.42875,0 10.77625,-16.27875 -7.23125,-10.9425 z"
         style="fill:#127bca;fill-opacity:1;fill-rule:nonzero;stroke:none"
         id="path3378-4"
         inkscape:connector-curvature="0" />
      <path
         d="m 350.97369,377.07891 -13.02249,19.785 -13.135,-19.785 -14.42875,0 15.3375,23.26625 12.20125,18.4525 0.025,-0.0387 6.42124,9.785 0.0288,0.0487 6.455,9.82875 14.42375,0 -20.175,-30.55125 20.2925,-30.79125 -14.42375,0 z"
         style="fill:#ffffff;fill-opacity:1;fill-rule:nonzero;stroke:none"
         id="path3380-4"
         inkscape:connector-curvature="0" />
    </g>
    <path
       style="fill:#000000;fill-opacity:1;stroke:#29235c;stroke-width:1.01015258;stroke-opacity:1"
       d="m 310.40126,220.24046 c -5.22863,-6.52812 -9.82002,-12.38921 -10.20309,-13.02468 -0.38307,-0.63546 0.0125,-2.85235 0.87916,-4.92643 1.8497,-4.42697 1.25116,-9.7131 -1.63768,-14.46342 -2.64206,-4.34452 -9.86683,-8.70577 -27.01531,-16.30787 -26.07642,-11.55994 -35.87402,-18.93032 -42.12777,-31.69114 -11.93243,-24.34824 -3.03788,-53.200735 19.75383,-64.078213 8.93155,-4.262636 14.81061,-5.483678 26.70943,-5.547371 17.02676,-0.09114 28.55342,4.134171 39.00498,14.297999 3.27074,3.180707 5.91146,6.215369 5.86826,6.743694 -0.0432,0.528326 -5.48652,5.389786 -12.09627,10.803241 l -12.01772,9.84266 -2.2984,-3.12285 c -7.26174,-9.866545 -24.13291,-11.648265 -32.13369,-3.39355 -2.72611,2.81263 -3.4099,4.41945 -3.78002,8.88266 -0.90792,10.94834 3.60329,15.45185 24.5098,24.46796 23.41674,10.09867 33.12487,15.84568 40.76045,24.12931 12.53463,13.59847 15.73578,36.93513 7.45644,54.35802 -2.87931,6.05913 -9.58545,14.89927 -11.30263,14.89927 -0.45274,0 -5.10113,-5.34118 -10.32977,-11.86929 z"
       id="path4186"
       inkscape:connector-curvature="0"
       transform="translate(52.459693,377.07891)" />
    <path
       style="fill:#000000;fill-opacity:1;stroke:#29235c;stroke-width:1.01015258;stroke-opacity:1"
       d="m 357.06696,157.35846 0,-87.883272 57.5787,0 57.57869,0 0,17.172593 0,17.172589 -40.93397,0 -40.93396,0 0.27532,18.43529 0.27533,18.43528 25.50635,0.26989 25.50635,0.26988 0,16.65017 0,16.65017 -25.75889,0 -25.75889,0 0,18.68782 0,18.68783 40.91118,0 40.91118,0 0,16.66751 0,16.66752 -57.57869,0 -57.5787,0 0,-87.88327 z"
       id="path4188"
       inkscape:connector-curvature="0"
       transform="translate(52.459693,377.07891)" />
    <path
       style="fill:#000000;fill-opacity:1;stroke:#29235c;stroke-width:1.01015258;stroke-opacity:1"
       d="m 492.4274,157.35846 0,-87.883272 57.5787,0 57.57869,0 0,17.172593 0,17.172589 -40.93396,0 -40.93397,0 0.27533,18.43529 0.27532,18.43528 25.50635,0.26989 25.50636,0.26988 0,16.65017 0,16.65017 -25.75889,0 -25.75889,0 0,18.68782 0,18.68783 40.91117,0 40.91118,0 0,16.66751 0,16.66752 -57.57869,0 -57.5787,0 0,-87.88327 z"
       id="path4190"
       inkscape:connector-curvature="0"
       transform="translate(52.459693,377.07891)" />
    <path
       style="fill:#000000;fill-opacity:1;stroke:#29235c;stroke-width:1.01015258;stroke-opacity:1"
       d="m 167.326,276.82954 -3.36782,-0.41373 0.71881,-8.62922 c 0.7848,-9.42148 0.35168,-10.37798 -4.71279,-10.40756 -10.09691,-0.059 -36.01595,-10.13678 -49.33775,-19.18344 -30.011052,-20.38012 -51.475335,-52.93181 -59.29802,-89.9285 -1.269427,-6.00364 -1.821137,-13.06796 -1.834215,-23.48605 l -0.0187,-14.89975 -6.894291,-2.2981 c -3.791861,-1.26395 -6.860199,-2.62766 -6.81853,-3.03045 0.04167,-0.4028 0.07576,-2.75084 0.07576,-5.217874 l 0,-4.485509 7.247998,2.465204 c 3.9864,1.355862 7.548422,2.465203 7.915606,2.465203 0.367184,0 1.449364,-2.841054 2.404846,-6.313453 4.235994,-15.394399 14.785003,-31.925983 26.58126,-41.656087 26.446186,-21.814048 63.034066,-24.994073 98.163536,-8.531852 4.66352,2.185403 8.6435,3.97346 8.84438,3.97346 0.20089,0 0.36525,-1.742513 0.36525,-3.872251 0,-2.129739 0.25543,-4.127676 0.56761,-4.439861 0.31219,-0.312185 2.2441,0.08991 4.29315,0.893542 l 3.72554,1.461152 -0.32995,5.764848 -0.32993,5.764847 8.17078,6.435888 c 4.49392,3.539738 10.65256,9.116515 13.68586,12.392836 l 5.51508,5.95695 -2.74931,3.939569 -2.74933,3.93957 -7.57614,-7.328917 c -8.28772,-8.017273 -13.86525,-12.725427 -15.07523,-12.725427 -0.42796,0 -1.30839,5.764047 -1.95653,12.808994 -0.64814,7.044946 -1.29617,12.926715 -1.44004,13.070597 -0.14389,0.143882 -13.79601,3.189397 -30.33804,6.767812 -16.54204,3.578409 -30.35299,6.782759 -30.691,7.120769 -0.33801,0.33801 -2.12858,11.87039 -3.97906,25.62752 l -3.3645,25.01296 12.14134,11.86929 c 6.67773,6.52811 12.53177,11.8693 13.00896,11.8693 0.4772,0 2.59985,-2.27143 4.717,-5.04763 2.11715,-2.77619 4.15519,-4.7081 4.52898,-4.29314 0.37379,0.41496 3.07176,7.34571 5.99551,15.40168 4.9074,13.52167 5.74748,15.09195 10.93238,20.43488 l 5.6165,5.78767 -1.2275,13.91031 c -1.71534,19.43865 -2.06334,17.79703 3.60457,17.00326 7.34566,-1.02872 15.13989,-3.44813 22.20342,-6.89217 l 6.40665,-3.12376 4.96876,4.89405 c 2.73282,2.69173 4.74192,5.26111 4.46465,5.70973 -1.05483,1.70675 -13.60714,8.07666 -20.60732,10.45757 -4.01736,1.3664 -11.08889,3.0138 -15.71451,3.66089 l -8.41021,1.17653 -0.63154,6.67454 c -0.91356,9.65522 -1.52905,12.25092 -2.86169,12.06872 -0.65033,-0.0889 -2.69795,-0.34785 -4.55024,-0.57541 z m 0.27166,-37.90126 c 0.30974,-2.36123 1.02065,-8.71798 1.57978,-14.12612 l 1.0166,-9.83295 -3.73647,-3.42423 c -2.83792,-2.60076 -6.0573,-4.07641 -13.38718,-6.13622 -5.30788,-1.4916 -12.0386,-3.39985 -14.95717,-4.24055 l -5.30647,-1.52854 4.73692,-6.15599 4.73692,-6.15598 -9.8035,-9.42879 c -5.39192,-5.18582 -10.17576,-9.42877 -10.63075,-9.42877 -0.455,0 -1.40277,5.1634 -2.10616,11.47423 -0.70339,6.31083 -1.59518,11.98598 -1.98174,12.61146 -0.49923,0.80776 -3.33976,0.38446 -9.80496,-1.46115 l -9.102119,-2.59837 4.242219,-29.45852 c 2.33322,-16.20219 3.95158,-29.75437 3.59635,-30.11595 -0.50601,-0.51507 -28.185898,-9.74291 -40.294364,-13.43323 -2.260699,-0.689 -2.272843,-0.63367 -2.272843,10.35473 0,33.10349 14.022717,64.55947 39.362907,88.29948 14.95983,14.01514 33.62521,24.00369 51.52797,27.57456 11.41558,2.27694 11.93459,2.16191 12.58406,-2.7891 z M 109.03461,116.69982 c 0.27702,-1.25006 2.06623,-13.33417 3.97603,-26.853571 1.90979,-13.519398 3.71564,-24.824013 4.01299,-25.121364 0.84698,-0.846982 15.92786,4.945706 16.45549,6.320686 0.25935,0.675863 -0.17946,5.940197 -0.97514,11.698521 -0.79568,5.758324 -1.31857,10.619429 -1.16199,10.802454 0.15659,0.183026 11.87905,-2.049598 26.04991,-4.961385 l 25.7652,-5.294159 0.55802,-3.119835 c 0.30691,-1.715909 0.85605,-7.225805 1.22032,-12.244214 l 0.66232,-9.124378 -7.95705,-3.682615 C 156.35128,45.266954 136.61341,43.077849 117.30574,48.428277 98.724583,53.57738 82.673607,66.571175 73.837415,83.617324 c -3.95345,7.626713 -8.210176,20.017656 -7.222895,21.025196 0.615575,0.6282 39.43508,14.06247 41.17805,14.25049 0.40611,0.0438 0.96502,-0.94313 1.24204,-2.19319 z"
       id="path4192"
       inkscape:connector-curvature="0"
       transform="translate(52.459693,377.07891)" />
    <path
       style="fill:#000000;fill-opacity:1;stroke:#29235c;stroke-width:1.01015258;stroke-opacity:1"
       d="m 107.91935,17.327259 -4.11843,-9.2164467 8.54451,-0.6932972 c 7.82744,-0.6351145 20.32673,-0.1867639 28.16847,1.0104059 3.13158,0.4780862 3.16302,0.543643 4.21541,8.787212 0.58316,4.568042 0.97575,8.390078 0.87242,8.493413 -0.10334,0.103335 -7.6975,0.333518 -16.87592,0.51152 l -16.68804,0.323639 -4.11842,-9.216446 z"
       id="path4194"
       inkscape:connector-curvature="0"
       transform="translate(52.459693,377.07891)" />
    <path
       style="fill:#000000;fill-opacity:1;stroke:#29235c;stroke-width:1.01015258;stroke-opacity:1"
       d="m 63.314001,37.148369 -7.374713,-7.904267 6.36456,-4.514091 C 72.146023,17.749408 89.137449,9.8761878 94.360319,9.8761878 c 1.04864,0 3.188576,3.1284062 5.953671,8.7037612 2.37414,4.787069 4.18008,8.839677 4.01319,9.005796 -0.16689,0.166119 -3.47984,1.497271 -7.362113,2.958117 -7.155595,2.69255 -20.414382,10.369251 -22.731655,13.161394 -0.696681,0.839449 -1.779243,1.48602 -2.405695,1.436825 -0.626451,-0.04919 -4.457624,-3.646365 -8.513716,-7.993712 z"
       id="path4196"
       inkscape:connector-curvature="0"
       transform="translate(52.459693,377.07891)" />
    <path
       style="fill:#000000;fill-opacity:1;stroke:#29235c;stroke-width:1.01015258;stroke-opacity:1"
       d="m 37.592912,86.814862 c -3.47567,-1.225589 -5.398196,-2.676248 -6.924591,-5.22501 -1.162182,-1.940602 -2.946789,-4.437505 -3.965792,-5.548673 -1.806846,-1.970268 -1.755771,-2.226574 2.062198,-10.348692 4.440288,-9.446003 12.389604,-21.393906 17.583217,-26.427754 l 3.504012,-3.396222 3.852388,3.083164 c 2.118813,1.695739 5.778056,5.063322 8.131652,7.483516 l 4.279264,4.400353 -4.386227,5.347119 c -5.998368,7.312432 -11.269572,16.422077 -14.5533,25.15087 -1.513042,4.021962 -3.205554,7.282354 -3.761138,7.245315 -0.555583,-0.03704 -3.175341,-0.830832 -5.821683,-1.763986 z"
       id="path4198"
       inkscape:connector-curvature="0"
       transform="translate(52.459693,377.07891)" />
    <path
       style="fill:#000000;fill-opacity:1;stroke:#29235c;stroke-width:1.01015258;stroke-opacity:1"
       d="m 173.22254,32.794148 c -4.16504,-1.608587 -10.4607,-3.528932 -13.99035,-4.267431 -3.52965,-0.738499 -6.53704,-1.48679 -6.68308,-1.662869 -0.14603,-0.176078 -0.5659,-4.070335 -0.93303,-8.653902 -0.76824,-9.5913774 -1.16065,-9.2907952 8.8304,-6.764107 12.41642,3.140054 14.53326,4.300394 15.28956,8.380917 0.3758,2.02757 1.82502,5.792882 3.22049,8.367359 3.98008,7.342763 3.13111,8.023841 -5.73399,4.600033 z"
       id="path4200"
       inkscape:connector-curvature="0"
       transform="translate(52.459693,377.07891)" />
    <path
       style="fill:#000000;fill-opacity:1;stroke:#29235c;stroke-width:1.01015258;stroke-opacity:1"
       d="m 222.52855,67.557398 c -2.39666,-2.704034 -7.88047,-8.003218 -12.18625,-11.775966 -6.04933,-5.300469 -7.82868,-7.464636 -7.82868,-9.521806 0,-3.405447 1.67976,-5.434788 5.85679,-7.07568 3.12465,-1.227476 3.53216,-1.128745 6.56599,1.590811 7.61107,6.822632 17.2383,16.341199 19.97096,19.745542 l 2.94753,3.672017 -5.48439,4.140754 -5.48438,4.140754 -4.35757,-4.916426 z"
       id="path4202"
       inkscape:connector-curvature="0"
       transform="translate(52.459693,377.07891)" />
    <path
       style="fill:#000000;fill-opacity:1;stroke:#29235c;stroke-width:1.01015258;stroke-opacity:1"
       d="m 184.52903,286.35736 c -3.39936,-3.50726 -3.77694,-5.51846 -2.62027,-13.95724 l 0.60833,-4.43831 10.14805,-2.22764 c 10.99976,-2.41461 21.49561,-6.92517 30.77011,-13.22337 l 5.88836,-3.99871 5.53537,2.79648 c 3.04445,1.53807 7.46728,3.37432 9.82851,4.08056 2.36123,0.70624 4.29315,1.62107 4.29315,2.03296 0,1.25795 -11.06147,10.94378 -17.46162,15.29003 -8.88014,6.03039 -21.73057,11.73399 -32.7151,14.52045 -5.32473,1.35073 -9.98845,2.45587 -10.3638,2.45587 -0.37536,0 -2.13535,-1.49899 -3.91109,-3.33108 z"
       id="path4204"
       inkscape:connector-curvature="0"
       transform="translate(52.459693,377.07891)" />
    <path
       style="fill:#000000;fill-opacity:1;stroke:#29235c;stroke-width:1.01015258;stroke-opacity:1"
       d="M 289.56013,46.999294 C 284.6356,39.637807 275.77976,26.228032 269.88047,17.199794 L 259.1545,0.78481489 l 6.52498,0 6.52498,0 6.3183,9.57254111 c 3.47506,5.264897 6.61248,9.583299 6.97205,9.596449 0.35956,0.01315 3.45123,-4.294494 6.87037,-9.572541 l 6.21663,-9.59644911 6.57376,0 c 4.98497,0 6.39277,0.30517511 5.82488,1.26269071 -0.41188,0.6944798 -4.81293,7.3571327 -9.78012,14.8058944 l -9.03125,13.543205 1.81807,3.124312 c 0.99994,1.718373 5.38315,8.465495 9.74046,14.993606 l 7.92238,11.869292 -6.56808,0 -6.56809,0 -8.95369,-13.384521 z"
       id="path4206"
       inkscape:connector-curvature="0"
       transform="translate(52.459693,377.07891)" />
    <path
       style="fill:#000000;fill-opacity:1;stroke:#29235c;stroke-width:1.01015258;stroke-opacity:1"
       d="m 323.40793,54.575438 c 2.03034,-3.194608 6.37307,-9.812991 9.65051,-14.707519 l 5.95899,-8.899141 -3.30349,-5.242995 c -1.81692,-2.883646 -5.85674,-9.106827 -8.97737,-13.82929 -3.12063,-4.7224633 -6.00926,-9.1545076 -6.41918,-9.8489874 -0.56457,-0.9564837 0.82906,-1.26269071 5.74683,-1.26269071 l 6.49213,0 6.32786,9.59644911 c 3.48033,5.278047 6.60873,9.593963 6.95201,9.590924 0.34328,-0.003 3.35155,-4.297663 6.68505,-9.543609 l 6.06092,-9.53808377 6.83638,-0.0528401 6.83639,-0.0528403 -9.253,13.82518717 c -5.08914,7.603853 -9.43974,14.539331 -9.668,15.412173 -0.22825,0.872842 3.70028,7.857637 8.73007,15.521766 5.02978,7.664129 9.14507,14.138426 9.14507,14.387327 0,0.248901 -2.84106,0.441788 -6.31346,0.428639 l -6.31345,-0.02391 -6.39754,-9.691622 -6.39754,-9.691624 -6.49697,9.715532 -6.49696,9.715532 -6.53839,0 -6.53838,0 3.69152,-5.808377 z"
       id="path4208"
       inkscape:connector-curvature="0"
       transform="translate(52.459693,377.07891)" />
    <path
       style="fill:#000000;fill-opacity:1;stroke:#29235c;stroke-width:1.01015258;stroke-opacity:1"
       d="m 280.5705,267.46509 c 0,-2.50013 0.19699,-3.52291 0.43777,-2.27285 0.24077,1.25007 0.24077,3.29563 0,4.54569 -0.24078,1.25006 -0.43777,0.22728 -0.43777,-2.27284 z"
       id="path4210"
       inkscape:connector-curvature="0"
       transform="translate(52.459693,377.07891)" />
    <path
       style="fill:#000000;fill-opacity:1;stroke:#29235c;stroke-width:1.01015258;stroke-opacity:1"
       d=""
       id="path4212"
       inkscape:connector-curvature="0"
       transform="translate(52.459693,377.07891)" />
    <path
       style="fill:#000000;fill-opacity:1;stroke:#29235c;stroke-width:1.01015258;stroke-opacity:1"
       d="m 292.63174,273.70447 c -0.19622,-12.30932 -0.0644,-13.42968 1.5431,-13.1201 1.36953,0.26375 2.19279,2.62218 3.72832,10.68067 1.08387,5.6882 2.25174,10.34218 2.59526,10.34218 0.34352,0 1.51138,-4.65398 2.59526,-10.34218 1.53553,-8.05849 2.35879,-10.41692 3.72832,-10.68067 1.59771,-0.30769 1.75764,0.8631 1.75764,12.86756 0,16.09102 -1.82526,18.00454 -2.23867,2.34692 -0.31571,-11.95757 -0.36897,-11.8862 -3.8111,5.10716 -0.73443,3.62578 -1.6382,5.71497 -2.36732,5.47238 -0.64865,-0.21582 -2.06161,-5.01418 -3.13992,-10.66301 -1.0783,-5.64883 -2.31299,-10.2706 -2.74374,-10.2706 -0.43075,0 -0.92931,4.88661 -1.1079,10.85914 l -0.32472,10.85914 -0.21453,-13.45859 z"
       id="path4214"
       inkscape:connector-curvature="0"
       transform="translate(52.459693,377.07891)" />
    <path
       style="fill:#000000;fill-opacity:1;stroke:#29235c;stroke-width:1.01015258;stroke-opacity:1"
       d="m 278.27506,273.526 0,-13.13198 5.05076,0 c 2.77792,0 5.05077,0.45457 5.05077,1.01015 0,0.55559 -1.80962,1.01015 -4.02137,1.01015 -3.447,0 -4.11189,0.3607 -4.65519,2.52539 -0.34861,1.38896 -0.34861,3.6618 0,5.05076 0.52423,2.08869 1.24187,2.52538 4.15012,2.52538 1.93396,0 3.51629,0.45457 3.51629,1.01015 0,0.55559 -1.591,1.01015 -3.53554,1.01015 l -3.53553,0 0,5.05077 0,5.05076 4.04061,0 c 2.22233,0 4.04061,0.45457 4.04061,1.01015 0,0.55559 -2.27285,1.01016 -5.05077,1.01016 l -5.05076,0 0,-13.13199 z"
       id="path4216"
       inkscape:connector-curvature="0"
       transform="translate(52.459693,377.07891)" />
    <path
       style="fill:#000000;fill-opacity:1;stroke:#29235c;stroke-width:1.01015258;stroke-opacity:1"
       d="m 264.16847,284.70409 c -1.32869,-2.48268 -1.34699,-5.11717 -0.0355,-5.11717 0.55558,0 1.01015,0.88655 1.01015,1.97011 0,2.58282 2.92058,4.22069 5.27721,2.95946 3.16789,-1.6954 2.13676,-5.72541 -2.75183,-10.75508 -4.63808,-4.77193 -5.51829,-7.64228 -3.49999,-11.41349 1.19866,-2.23973 6.87985,-2.71567 8.8538,-0.74172 1.46789,1.46789 1.60876,4.84873 0.20203,4.84873 -0.55558,0 -1.01015,-0.66586 -1.01015,-1.47968 0,-2.50527 -3.64527,-3.82211 -5.48569,-1.98169 -2.62493,2.62493 -1.82342,5.3257 2.96031,9.97495 3.62431,3.52242 4.54568,5.11184 4.54568,7.8415 0,4.2948 -1.5198,5.84798 -5.72233,5.84798 -2.22675,0 -3.63761,-0.63465 -4.34365,-1.9539 z"
       id="path4218"
       inkscape:connector-curvature="0"
       transform="translate(52.459693,377.07891)" />
    <path
       style="fill:#000000;fill-opacity:1;stroke:#29235c;stroke-width:1.01015258;stroke-opacity:1"
       d="m 312.62025,285.01957 c 0,-0.96671 1.00276,-6.90293 2.22836,-13.1916 1.81184,-9.29674 2.55438,-11.43395 3.97254,-11.43395 2.04572,0 2.27851,0.6627 4.43539,12.62691 0.90144,5.00025 1.88102,10.11415 2.17685,11.36421 0.29582,1.25007 0.0833,2.27285 -0.47229,2.27285 -0.55559,0 -1.29538,-1.13643 -1.64399,-2.52539 -0.5433,-2.16468 -1.20819,-2.52538 -4.65519,-2.52538 -3.30717,0 -4.02137,0.34822 -4.02137,1.96069 0,1.07838 -0.45456,2.24163 -1.01015,2.585 -0.55558,0.34337 -1.01015,-0.16663 -1.01015,-1.13334 z m 8.22549,-13.51387 c -0.8471,-4.44467 -1.81543,-8.08122 -2.15184,-8.08122 -0.53447,0 -3.04319,12.50658 -3.04319,15.17103 0,0.54528 1.51542,0.99141 3.36761,0.99141 l 3.36761,0 -1.54019,-8.08122 z"
       id="path4220"
       inkscape:connector-curvature="0"
       transform="translate(52.459693,377.07891)" />
    <path
       style="fill:#000000;fill-opacity:1;stroke:#29235c;stroke-width:1.01015258;stroke-opacity:1"
       d="m 328.78269,273.526 c 0,-12.07517 0.14949,-13.13198 1.85761,-13.13198 1.46627,0 2.4771,2.01932 4.79823,9.58536 1.61733,5.27194 3.26507,9.59035 3.66164,9.59645 0.39657,0.006 0.86965,-4.42096 1.05128,-9.8379 0.2986,-8.90529 0.3505,-8.55846 0.54166,3.61971 0.14739,9.39044 -0.12341,13.3571 -0.89435,13.10012 -0.60816,-0.20272 -2.47164,-4.67265 -4.14106,-9.93317 -1.66941,-5.26052 -3.44467,-9.99642 -3.945,-10.52422 -0.54262,-0.57241 -0.90971,3.40192 -0.90971,9.84898 0,6.53232 -0.39965,10.80864 -1.01015,10.80864 -0.62163,0 -1.01015,-5.05077 -1.01015,-13.13199 z"
       id="path4222"
       inkscape:connector-curvature="0"
       transform="translate(52.459693,377.07891)" />
    <path
       style="fill:#000000;fill-opacity:1;stroke:#29235c;stroke-width:1.01015258;stroke-opacity:1"
       d="m 344.99952,285.39529 c 0.0299,-0.69448 1.0587,-6.49023 2.28619,-12.87944 1.93412,-10.06731 2.49376,-11.61675 4.1959,-11.61675 1.65602,0 2.23472,1.34682 3.68927,8.58629 2.68904,13.38369 3.13655,17.1726 2.02823,17.1726 -0.55098,0 -1.14705,-1.02278 -1.32458,-2.27285 -0.26834,-1.88941 -1.04705,-2.32524 -4.61595,-2.58346 -4.01263,-0.29033 -4.29314,-0.14182 -4.29314,2.27284 0,1.42091 -0.45457,2.58347 -1.01016,2.58347 -0.55558,0 -0.98567,-0.56822 -0.95576,-1.2627 z m 9.73604,-8.08122 c -0.29157,-1.25006 -1.06241,-4.92266 -1.71299,-8.16133 -0.65058,-3.23866 -1.42167,-5.64968 -1.71354,-5.35782 -0.55808,0.55808 -3.237,12.36019 -3.29796,14.52931 -0.022,0.78342 1.34804,1.26269 3.60956,1.26269 3.26368,0 3.58958,-0.2378 3.11493,-2.27285 z"
       id="path4224"
       inkscape:connector-curvature="0"
       transform="translate(52.459693,377.07891)" />
    <path
       style="fill:#000000;fill-opacity:1;stroke:#29235c;stroke-width:1.01015258;stroke-opacity:1"
       d="m 371.2091,273.526 c 0,-10.10152 0,-10.10152 2.52538,-10.10152 2.52538,0 2.52538,0 2.52538,10.10152 0,10.10153 0,10.10153 -2.52538,10.10153 -2.52538,0 -2.52538,0 -2.52538,-10.10153 z"
       id="path4226"
       inkscape:connector-curvature="0"
       transform="translate(52.459693,377.07891)" />
    <path
       style="fill:#000000;fill-opacity:1;stroke:#29235c;stroke-width:1.01015258;stroke-opacity:1"
       d="m 368.17864,273.526 0,-13.13198 4.34365,0 c 2.38902,0 4.88914,0.54548 5.55584,1.21218 1.66235,1.66235 1.66235,22.17725 0,23.8396 -0.6667,0.6667 -3.16682,1.21219 -5.55584,1.21219 l -4.34365,0 0,-13.13199 z m 8.5863,0 0,-10.6066 -3.283,-0.31654 -3.283,-0.31654 0,11.23968 0,11.23968 3.283,-0.31654 3.283,-0.31654 0,-10.6066 z"
       id="path4228"
       inkscape:connector-curvature="0"
       transform="translate(52.459693,377.07891)" />
    <path
       style="fill:#000000;fill-opacity:1;stroke:#29235c;stroke-width:1.01015258;stroke-opacity:1"
       d="m 387.62408,274.84998 c 0.97227,-0.25408 2.56326,-0.25408 3.53553,0 0.97227,0.25408 0.17678,0.46197 -1.76777,0.46197 -1.94454,0 -2.74004,-0.20789 -1.76776,-0.46197 z"
       id="path4230"
       inkscape:connector-curvature="0"
       transform="translate(52.459693,377.07891)" />
    <path
       style="fill:#000000;fill-opacity:1;stroke:#29235c;stroke-width:1.01015258;stroke-opacity:1"
       d="m 388.12915,274.8773 c 0.69448,-0.28023 1.8309,-0.28023 2.52538,0 0.69448,0.28023 0.12627,0.50951 -1.26269,0.50951 -1.38896,0 -1.95717,-0.22928 -1.26269,-0.50951 z"
       id="path4232"
       inkscape:connector-curvature="0"
       transform="translate(52.459693,377.07891)" />
    <path
       style="fill:#000000;fill-opacity:1;stroke:#29235c;stroke-width:1.01015258;stroke-opacity:1"
       d="m 387.62408,271.81953 c 0.97227,-0.25409 2.56326,-0.25409 3.53553,0 0.97227,0.25408 0.17678,0.46196 -1.76777,0.46196 -1.94454,0 -2.74004,-0.20788 -1.76776,-0.46196 z"
       id="path4234"
       inkscape:connector-curvature="0"
       transform="translate(52.459693,377.07891)" />
    <path
       style="fill:#000000;fill-opacity:1;stroke:#29235c;stroke-width:1.01015258;stroke-opacity:1"
       d="m 383.33093,273.526 0,-13.13198 5.05076,0 c 2.77792,0 5.05076,0.45457 5.05076,1.01015 0,0.55559 -1.81827,1.01015 -4.04061,1.01015 l -4.04061,0 0,4.96659 c 0,2.98556 0.50365,5.20162 1.26269,5.55584 1.01016,0.4714 1.01016,0.7071 0,1.17851 -0.75904,0.35422 -1.26269,2.57027 -1.26269,5.55584 l 0,4.96658 4.04061,0 c 2.22234,0 4.04061,0.45457 4.04061,1.01015 0,0.55559 -2.27284,1.01016 -5.05076,1.01016 l -5.05076,0 0,-13.13199 z"
       id="path4236"
       inkscape:connector-curvature="0"
       transform="translate(52.459693,377.07891)" />
    <path
       style="fill:#000000;fill-opacity:1;stroke:#29235c;stroke-width:1.01015258;stroke-opacity:1"
       d=""
       id="path4238"
       inkscape:connector-curvature="0"
       transform="translate(52.459693,377.07891)" />
    <path
       style="fill:#000000;fill-opacity:1;stroke:#29235c;stroke-width:1.01015258;stroke-opacity:1"
       d=""
       id="path4240"
       inkscape:connector-curvature="0"
       transform="translate(52.459693,377.07891)" />
    <path
       style="fill:#000000;fill-opacity:1;stroke:#29235c;stroke-width:1.01015258;stroke-opacity:1"
       d=""
       id="path4242"
       inkscape:connector-curvature="0"
       transform="translate(52.459693,377.07891)" />
    <path
       style="fill:#000000;fill-opacity:1;stroke:#29235c;stroke-width:1.01015258;stroke-opacity:1"
       d=""
       id="path4244"
       inkscape:connector-curvature="0"
       transform="translate(52.459693,377.07891)" />
    <path
       style="fill:#000000;fill-opacity:1;stroke:#29235c;stroke-width:1.01015258;stroke-opacity:1"
       d="m 403.53398,273.526 0,-13.13198 5.05076,0 c 2.77792,0 5.05076,0.45457 5.05076,1.01015 0,0.55559 -1.81827,1.01015 -4.04061,1.01015 l -4.04061,0 0,5.05077 0,5.05076 3.53554,0 c 1.94454,0 3.53553,0.45457 3.53553,1.01015 0,0.55559 -1.59099,1.01015 -3.53553,1.01015 l -3.53554,0 0,5.05077 0,5.05076 4.04061,0 c 2.22234,0 4.04061,0.45457 4.04061,1.01015 0,0.55559 -2.27284,1.01016 -5.05076,1.01016 l -5.05076,0 0,-13.13199 z"
       id="path4246"
       inkscape:connector-curvature="0"
       transform="translate(52.459693,377.07891)" />
    <path
       style="fill:#000000;fill-opacity:1;stroke:#29235c;stroke-width:1.01015258;stroke-opacity:1"
       d="m 420.06536,277.06154 c 0.003,-5.55584 0.17226,-7.69981 0.37696,-4.76437 0.2047,2.93544 0.20255,7.48113 -0.005,10.10153 -0.20733,2.6204 -0.37481,0.21867 -0.37218,-5.33716 z"
       id="path4248"
       inkscape:connector-curvature="0"
       transform="translate(52.459693,377.07891)" />
    <path
       style="fill:#000000;fill-opacity:1;stroke:#29235c;stroke-width:1.01015258;stroke-opacity:1"
       d="m 417.67611,273.45193 c 0,-11.93723 0.16666,-13.17395 1.7346,-12.872 1.21113,0.23325 2.65912,3.2278 4.79822,9.92306 l 3.06363,9.589 0.28912,-9.84898 c 0.43397,-14.78336 2.23626,-12.13745 2.23626,3.28299 0,16.59659 -1.25438,17.06839 -5.9911,2.2534 l -3.46573,-10.83969 -0.85485,5.05076 c -0.47017,2.77792 -0.59265,7.66453 -0.27218,10.85914 0.37638,3.75207 0.20728,5.80838 -0.47765,5.80838 -0.68625,0 -1.06032,-4.65896 -1.06032,-13.20606 z"
       id="path4250"
       inkscape:connector-curvature="0"
       transform="translate(52.459693,377.07891)" />
    <path
       style="fill:#000000;fill-opacity:1;stroke:#29235c;stroke-width:1.01015258;stroke-opacity:1"
       d="m 435.05074,285.4458 c -1.66235,-1.66235 -1.66235,-22.17725 0,-23.8396 1.97394,-1.97395 7.65513,-1.49801 8.8538,0.74172 1.3323,2.48943 1.3534,6.12732 0.0355,6.12732 -0.55558,0 -1.01015,-1.12043 -1.01015,-2.48984 0,-3.0027 -2.83589,-4.83066 -5.32939,-3.43523 -2.59169,1.45038 -2.59169,20.50128 0,21.95166 3.17253,1.77544 5.32939,-0.43247 5.32939,-5.45553 0,-3.33558 -0.39461,-4.51015 -1.51523,-4.51015 -0.83338,0 -1.51523,-0.45456 -1.51523,-1.01015 0,-0.55558 1.13642,-1.01015 2.52538,-1.01015 2.36139,0 2.52538,0.33229 2.52538,5.11717 0,6.89057 -1.27457,9.02497 -5.38935,9.02497 -1.81388,0 -3.84344,-0.54549 -4.51014,-1.21219 z"
       id="path4252"
       inkscape:connector-curvature="0"
       transform="translate(52.459693,377.07891)" />
    <path
       style="fill:#000000;fill-opacity:1;stroke:#29235c;stroke-width:1.01015258;stroke-opacity:1"
       d="m 448.99084,273.526 0,-13.13198 5.05076,0 c 2.77792,0 5.05077,0.45457 5.05077,1.01015 0,0.55559 -1.81828,1.01015 -4.04061,1.01015 l -4.04061,0 0,5.05077 0,5.05076 3.53553,0 c 1.94454,0 3.53554,0.45457 3.53554,1.01015 0,0.55559 -1.591,1.01015 -3.53554,1.01015 l -3.53553,0 0,5.05077 0,5.05076 4.04061,0 c 2.22233,0 4.04061,0.45457 4.04061,1.01015 0,0.55559 -2.27285,1.01016 -5.05077,1.01016 l -5.05076,0 0,-13.13199 z"
       id="path4254"
       inkscape:connector-curvature="0"
       transform="translate(52.459693,377.07891)" />
    <path
       style="fill:#000000;fill-opacity:1;stroke:#29235c;stroke-width:1.01015258;stroke-opacity:1"
       d=""
       id="path4256"
       inkscape:connector-curvature="0"
       transform="translate(52.459693,377.07891)" />
    <path
       style="fill:#000000;fill-opacity:1;stroke:#29235c;stroke-width:1.01015258;stroke-opacity:1"
       d=""
       id="path4258"
       inkscape:connector-curvature="0"
       transform="translate(52.459693,377.07891)" />
    <path
       style="fill:#000000;fill-opacity:1;stroke:#29235c;stroke-width:1.01015258;stroke-opacity:1"
       d=""
       id="path4260"
       inkscape:connector-curvature="0"
       transform="translate(52.459693,377.07891)" />
    <path
       style="fill:#000000;fill-opacity:1;stroke:#29235c;stroke-width:1.01015258;stroke-opacity:1"
       d=""
       id="path4262"
       inkscape:connector-curvature="0"
       transform="translate(52.459693,377.07891)" />
    <path
       style="fill:#000000;fill-opacity:1;stroke:#29235c;stroke-width:1.01015258;stroke-opacity:1"
       d="m 463.13298,273.526 c 0,-16.72647 1.38571,-17.45667 6.23015,-3.28299 l 3.3663,9.84898 0.28911,-9.84898 c 0.43397,-14.78336 2.23627,-12.13745 2.23627,3.28299 0,16.86149 -1.34791,17.36009 -6.14425,2.27285 l -3.4522,-10.85914 -0.28671,10.85914 c -0.4123,15.61554 -2.23867,13.76129 -2.23867,-2.27285 z"
       id="path4264"
       inkscape:connector-curvature="0"
       transform="translate(52.459693,377.07891)" />
    <path
       style="fill:#000000;fill-opacity:1;stroke:#29235c;stroke-width:1.01015258;stroke-opacity:1"
       d="m 483.58857,274.84998 c 0.97227,-0.25408 2.56326,-0.25408 3.53553,0 0.97227,0.25408 0.17678,0.46197 -1.76777,0.46197 -1.94454,0 -2.74003,-0.20789 -1.76776,-0.46197 z"
       id="path4266"
       inkscape:connector-curvature="0"
       transform="translate(52.459693,377.07891)" />
    <path
       style="fill:#000000;fill-opacity:1;stroke:#29235c;stroke-width:1.01015258;stroke-opacity:1"
       d="m 479.29542,273.526 c 0,-8.08122 0.38852,-13.13198 1.01015,-13.13198 0.5612,0 1.01015,2.69374 1.01015,6.06091 l 0,6.06092 3.53554,0 3.53553,0 0,-6.06092 c 0,-4.71404 0.33672,-6.06091 1.51523,-6.06091 1.26917,0 1.51523,2.13254 1.51523,13.13198 0,10.99944 -0.24606,13.13199 -1.51523,13.13199 -1.17684,0 -1.51523,-1.34025 -1.51523,-6.0013 0,-6.49373 -0.79858,-7.65634 -4.6031,-6.70147 -2.27305,0.5705 -2.46797,1.09658 -2.46797,6.6611 0,3.35434 -0.44931,6.04167 -1.01015,6.04167 -0.62163,0 -1.01015,-5.05077 -1.01015,-13.13199 z"
       id="path4268"
       inkscape:connector-curvature="0"
       transform="translate(52.459693,377.07891)" />
    <path
       style="fill:#000000;fill-opacity:1;stroke:#29235c;stroke-width:1.01015258;stroke-opacity:1"
       d="m 499.77023,278.88689 c 0.98285,-0.25612 2.34655,-0.23927 3.03046,0.0374 0.68391,0.27671 -0.12024,0.48626 -1.78699,0.46567 -1.66675,-0.0206 -2.22631,-0.24698 -1.24347,-0.5031 z"
       id="path4270"
       inkscape:connector-curvature="0"
       transform="translate(52.459693,377.07891)" />
    <path
       style="fill:#000000;fill-opacity:1;stroke:#29235c;stroke-width:1.01015258;stroke-opacity:1"
       d="m 499.75101,281.92105 c 0.97227,-0.25408 2.56326,-0.25408 3.53553,0 0.97227,0.25408 0.17678,0.46197 -1.76777,0.46197 -1.94454,0 -2.74003,-0.20789 -1.76776,-0.46197 z"
       id="path4272"
       inkscape:connector-curvature="0"
       transform="translate(52.459693,377.07891)" />
    <path
       style="fill:#000000;fill-opacity:1;stroke:#29235c;stroke-width:1.01015258;stroke-opacity:1"
       d="m 494.76655,284.38514 c 0.29583,-1.25006 1.27541,-6.36396 2.17685,-11.36421 2.15608,-11.95975 2.39008,-12.62691 4.42872,-12.62691 1.42197,0 2.20553,2.3848 4.31472,13.13198 2.03317,10.35988 2.29174,13.13199 1.22488,13.13199 -0.76906,0 -1.35234,-1.08924 -1.35234,-2.52539 0,-1.38896 -0.5032,-2.52538 -1.11822,-2.52538 -0.61503,0 -0.85737,-0.6798 -0.53853,-1.51067 0.83821,-2.18433 -1.95725,-17.4354 -3.00397,-16.38867 -0.23961,0.23961 -1.0748,3.79 -1.85597,7.88975 -1.08301,5.68382 -1.13756,7.64199 -0.22973,8.24525 0.85518,0.56828 0.69258,1.08466 -0.57718,1.83302 -0.97227,0.57302 -1.76777,1.92841 -1.76777,3.01197 0,1.08357 -0.50385,1.97012 -1.11966,1.97012 -0.64706,0 -0.89263,-0.95935 -0.5818,-2.27285 z"
       id="path4274"
       inkscape:connector-curvature="0"
       transform="translate(52.459693,377.07891)" />
    <path
       style="fill:#000000;fill-opacity:1;stroke:#29235c;stroke-width:1.01015258;stroke-opacity:1"
       d="m 511.6203,273.526 0,-13.13198 4.34366,0 c 2.38901,0 4.88913,0.54548 5.55583,1.21218 1.71982,1.71982 1.50376,8.91316 -0.32852,10.93781 -1.38085,1.52582 -1.38085,1.83514 0,2.98115 1.74219,1.44589 2.20384,11.13283 0.53056,11.13283 -0.55559,0 -1.01016,-2.2841 -1.01016,-5.07577 0,-4.52863 -0.28135,-5.18274 -2.61015,-6.06814 -3.75182,-1.42644 -4.46091,-0.5287 -4.46091,5.64768 0,3.02293 -0.45457,5.49623 -1.01016,5.49623 -0.62163,0 -1.01015,-5.05077 -1.01015,-13.13199 z m 7.45671,-1.30298 c 1.30207,-0.9521 1.69409,-2.38022 1.45576,-5.3033 -0.30128,-3.69503 -0.57672,-4.02448 -3.60917,-4.31686 l -3.28299,-0.31654 0,5.61984 c 0,4.74847 0.28331,5.61984 1.82723,5.61984 1.00498,0 2.6291,-0.58634 3.60917,-1.30298 z"
       id="path4276"
       inkscape:connector-curvature="0"
       transform="translate(52.459693,377.07891)" />
    <path
       style="fill:#000000;fill-opacity:1;stroke:#29235c;stroke-width:1.01015258;stroke-opacity:1"
       d="m 526.77259,273.526 c 0,-8.08122 0.38852,-13.13198 1.01015,-13.13198 0.62163,0 1.01015,5.05076 1.01015,13.13198 0,8.08122 -0.38852,13.13199 -1.01015,13.13199 -0.62163,0 -1.01015,-5.05077 -1.01015,-13.13199 z"
       id="path4278"
       inkscape:connector-curvature="0"
       transform="translate(52.459693,377.07891)" />
    <path
       style="fill:#000000;fill-opacity:1;stroke:#29235c;stroke-width:1.01015258;stroke-opacity:1"
       d="m 556.06701,273.526 0,-13.13198 5.05076,0 c 2.77792,0 5.05077,0.45457 5.05077,1.01015 0,0.55559 -1.81828,1.01015 -4.04061,1.01015 l -4.04061,0 0,5.05077 0,5.05076 3.53553,0 c 1.94454,0 3.53553,0.45457 3.53553,1.01015 0,0.55559 -1.59099,1.01015 -3.53553,1.01015 l -3.53553,0 0,5.05077 0,5.05076 4.04061,0 c 2.22233,0 4.04061,0.45457 4.04061,1.01015 0,0.55559 -2.27285,1.01016 -5.05077,1.01016 l -5.05076,0 0,-13.13199 z"
       id="path4280"
       inkscape:connector-curvature="0"
       transform="translate(52.459693,377.07891)" />
    <path
       style="fill:#000000;fill-opacity:1;stroke:#29235c;stroke-width:1.01015258;stroke-opacity:1"
       d="m 532.89735,285.39529 c 0.0351,-0.69448 1.07274,-6.49023 2.30584,-12.87944 1.90386,-9.86467 2.54174,-11.66014 4.22931,-11.90441 1.78263,-0.25803 2.22388,0.99036 4.28447,12.12183 2.59766,14.03275 2.58751,13.92472 1.30862,13.92472 -0.51694,0 -1.08515,-1.02278 -1.26269,-2.27285 -0.26834,-1.88941 -1.04705,-2.32524 -4.61594,-2.58346 -4.01263,-0.29033 -4.29315,-0.14182 -4.29315,2.27284 0,1.42091 -0.45457,2.58347 -1.01015,2.58347 -0.55559,0 -0.98143,-0.56822 -0.94631,-1.2627 z m 9.72658,-8.08122 c -0.29156,-1.25006 -1.07206,-4.96917 -1.73444,-8.26469 -1.28813,-6.40878 -2.24164,-6.14604 -3.41532,0.94109 -0.36803,2.22233 -0.91701,5.29067 -1.21994,6.81853 -0.52104,2.62785 -0.34955,2.77792 3.17451,2.77792 3.34692,0 3.67146,-0.23086 3.19519,-2.27285 z"
       id="path4282"
       inkscape:connector-curvature="0"
       transform="translate(52.459693,377.07891)" />
    <path
       style="fill:#000000;fill-opacity:1;stroke:#29235c;stroke-width:1.01015258;stroke-opacity:1"
       d="m 572.61509,272.01077 c 0.002,-6.667 0.16549,-9.26296 0.3633,-5.76879 0.19782,3.49417 0.19619,8.949 -0.004,12.12183 -0.19981,3.17284 -0.36166,0.31397 -0.35967,-6.35304 z"
       id="path4284"
       inkscape:connector-curvature="0"
       transform="translate(52.459693,377.07891)" />
    <path
       style="fill:#000000;fill-opacity:1;stroke:#29235c;stroke-width:1.01015258;stroke-opacity:1"
       d="m 572.57574,272.01077 c 0.004,-4.44467 0.18127,-6.13728 0.39466,-3.76137 0.21339,2.37592 0.21038,6.01247 -0.007,8.08122 -0.21706,2.06876 -0.39166,0.12482 -0.38799,-4.31985 z"
       id="path4286"
       inkscape:connector-curvature="0"
       transform="translate(52.459693,377.07891)" />
    <path
       style="fill:#000000;fill-opacity:1;stroke:#29235c;stroke-width:1.01015258;stroke-opacity:1"
       d="m 573.17888,277.31407 c -0.49833,-2.07245 -0.24484,-10.86043 0.31326,-10.85988 0.41669,4.1e-4 0.75762,2.50087 0.75762,5.55658 0,3.05571 -0.22729,5.55584 -0.50508,5.55584 -0.27779,0 -0.5324,-0.11364 -0.5658,-0.25254 z"
       id="path4288"
       inkscape:connector-curvature="0"
       transform="translate(52.459693,377.07891)" />
    <path
       style="fill:#000000;fill-opacity:1;stroke:#29235c;stroke-width:1.01015258;stroke-opacity:1"
       d="m 575.01915,283.92324 c 1.25654,-0.24162 3.07482,-0.23245 4.04061,0.0204 0.96579,0.25284 -0.0623,0.45053 -2.28462,0.43932 -2.22234,-0.0112 -3.01253,-0.21808 -1.75599,-0.4597 z"
       id="path4290"
       inkscape:connector-curvature="0"
       transform="translate(52.459693,377.07891)" />
    <path
       style="fill:#000000;fill-opacity:1;stroke:#29235c;stroke-width:1.01015258;stroke-opacity:1"
       d="m 570.20915,273.526 c 0,-7.22259 0.36956,-13.13198 0.82124,-13.13198 0.45169,0 0.79893,5.24803 0.77166,11.66228 -0.0543,12.76497 0.46573,13.97091 5.7307,13.29036 1.52786,-0.19749 2.77792,0.0168 2.77792,0.47612 0,0.45936 -2.27284,0.83521 -5.05076,0.83521 l -5.05076,0 0,-13.13199 z"
       id="path4292"
       inkscape:connector-curvature="0"
       transform="translate(52.459693,377.07891)" />
    <path
       style="fill:#000000;fill-opacity:1;stroke:#29235c;stroke-width:1.01015258;stroke-opacity:1"
       d="m 583.34113,273.526 0,-13.13198 5.05076,0 c 2.77792,0 5.05077,0.45457 5.05077,1.01015 0,0.55559 -1.81828,1.01015 -4.04061,1.01015 l -4.04061,0 0,5.05077 0,5.05076 3.53553,0 c 1.94454,0 3.53553,0.45457 3.53553,1.01015 0,0.55559 -1.59099,1.01015 -3.53553,1.01015 l -3.53553,0 0,5.05077 0,5.05076 4.04061,0 c 2.22233,0 4.04061,0.45457 4.04061,1.01015 0,0.55559 -2.27285,1.01016 -5.05077,1.01016 l -5.05076,0 0,-13.13199 z"
       id="path4294"
       inkscape:connector-curvature="0"
       transform="translate(52.459693,377.07891)" />
    <path
       style="fill:#000000;fill-opacity:1;stroke:#29235c;stroke-width:1.01015258;stroke-opacity:1"
       d="m 603.92982,275.04123 c 0.002,-6.66701 0.16548,-9.26296 0.3633,-5.76879 0.19782,3.49417 0.19619,8.94899 -0.004,12.12183 -0.19981,3.17283 -0.36167,0.31397 -0.35967,-6.35304 z"
       id="path4296"
       inkscape:connector-curvature="0"
       transform="translate(52.459693,377.07891)" />
    <path
       style="fill:#000000;fill-opacity:1;stroke:#29235c;stroke-width:1.01015258;stroke-opacity:1"
       d="m 602.76839,271.5057 c 0,-1.94455 0.20788,-2.74004 0.46196,-1.76777 0.25408,0.97227 0.25408,2.56326 0,3.53553 -0.25408,0.97228 -0.46196,0.17678 -0.46196,-1.76776 z"
       id="path4298"
       inkscape:connector-curvature="0"
       transform="translate(52.459693,377.07891)" />
    <path
       style="fill:#000000;fill-opacity:1;stroke:#29235c;stroke-width:1.01015258;stroke-opacity:1"
       d="m 600.89936,275.04123 c 0.002,-6.66701 0.16549,-9.26296 0.36331,-5.76879 0.19781,3.49417 0.19618,8.94899 -0.004,12.12183 -0.19981,3.17283 -0.36166,0.31397 -0.35967,-6.35304 z"
       id="path4300"
       inkscape:connector-curvature="0"
       transform="translate(52.459693,377.07891)" />
    <path
       style="fill:#000000;fill-opacity:1;stroke:#29235c;stroke-width:1.01015258;stroke-opacity:1"
       d=""
       id="path4302"
       inkscape:connector-curvature="0"
       transform="translate(52.459693,377.07891)" />
    <path
       style="fill:#000000;fill-opacity:1;stroke:#29235c;stroke-width:1.01015258;stroke-opacity:1"
       d="m 602.28149,267.89834 c -0.41669,-0.42348 -0.75761,-1.83063 -0.75761,-3.12699 0,-1.84073 -0.55318,-2.35703 -2.52538,-2.35703 -1.38896,0 -2.52539,-0.45456 -2.52539,-1.01015 0,-0.56119 2.69374,-1.01015 6.06092,-1.01015 3.36717,0 6.06091,0.44896 6.06091,1.01015 0,0.55559 -1.10762,1.01015 -2.46138,1.01015 -2.01014,0 -2.5194,0.57326 -2.77791,3.127 -0.1741,1.71985 -0.65747,2.78051 -1.07416,2.35702 z"
       id="path4304"
       inkscape:connector-curvature="0"
       transform="translate(52.459693,377.07891)" />
    <path
       style="fill:#000000;fill-opacity:1;stroke:#29235c;stroke-width:1.01015258;stroke-opacity:1"
       d="m 601.64339,284.89022 c 0.0657,-0.97227 0.46652,-3.13147 0.89064,-4.79823 0.68832,-2.70505 0.78395,-2.51522 0.89064,1.76777 0.0657,2.63902 -0.33506,4.79823 -0.89064,4.79823 -0.55558,0 -0.95637,-0.7955 -0.89064,-1.76777 z"
       id="path4306"
       inkscape:connector-curvature="0"
       transform="translate(52.459693,377.07891)" />
    <path
       style="fill:#000000;fill-opacity:1;stroke:#29235c;stroke-width:1.01015258;stroke-opacity:1"
       d=""
       id="path4308"
       inkscape:connector-curvature="0"
       transform="translate(52.459693,377.07891)" />
    <path
       style="fill:#000000;fill-opacity:1;stroke:#29235c;stroke-width:1.01015258;stroke-opacity:1"
       d=""
       id="path4310"
       inkscape:connector-curvature="0"
       transform="translate(52.459693,377.07891)" />
    <path
       style="fill:#000000;fill-opacity:1;stroke:#29235c;stroke-width:1.01015258;stroke-opacity:1"
       d="m 588.39189,256.53671 c 0,-1.22082 1.91646,-2.64417 2.617,-1.94363 0.25426,0.25425 -0.23055,1.03729 -1.07736,1.74007 -0.96003,0.79676 -1.53964,0.87339 -1.53964,0.20356 z"
       id="path4312"
       inkscape:connector-curvature="0"
       transform="translate(52.459693,377.07891)" />
    <path
       style="fill:#000000;fill-opacity:1;stroke:#29235c;stroke-width:1.01015258;stroke-opacity:1"
       d="m 614.46646,274.85626 c 0.7292,-0.29181 1.60046,-0.25592 1.93612,0.0797 0.33567,0.33566 -0.26095,0.57441 -1.32582,0.53055 -1.17677,-0.0485 -1.41614,-0.28784 -0.6103,-0.6103 z"
       id="path4314"
       inkscape:connector-curvature="0"
       transform="translate(52.459693,377.07891)" />
    <path
       style="fill:#000000;fill-opacity:1;stroke:#29235c;stroke-width:1.01015258;stroke-opacity:1"
       d=""
       id="path4316"
       inkscape:connector-curvature="0"
       transform="translate(52.459693,377.07891)" />
    <path
       style="fill:#000000;fill-opacity:1;stroke:#29235c;stroke-width:1.01015258;stroke-opacity:1"
       d="m 611.6254,273.526 0,-13.13198 4.34366,0 c 2.38901,0 4.88914,0.54548 5.55584,1.21218 1.71981,1.71982 1.50375,8.91316 -0.32853,10.93781 -1.38085,1.52582 -1.38085,1.83514 0,2.98115 1.74219,1.44589 2.20384,11.13283 0.53056,11.13283 -0.55559,0 -1.01016,-2.25685 -1.01016,-5.01523 0,-4.10753 -0.39549,-5.22688 -2.18521,-6.18471 l -2.18522,-1.16949 2.25773,-1.70301 c 1.79668,-1.35524 2.19135,-2.5161 1.93268,-5.68458 -0.29995,-3.67412 -0.57856,-4.00601 -3.60805,-4.29811 l -3.28299,-0.31654 0,12.18583 c 0,7.45046 -0.39255,12.18584 -1.01016,12.18584 -0.62163,0 -1.01015,-5.05077 -1.01015,-13.13199 z"
       id="path4318"
       inkscape:connector-curvature="0"
       transform="translate(52.459693,377.07891)" />
    <path
       style="fill:#000000;fill-opacity:1;stroke:#29235c;stroke-width:1.01015258;stroke-opacity:1"
       d="m 626.77769,273.526 c 0,-8.08122 0.38852,-13.13198 1.01015,-13.13198 0.62163,0 1.01016,5.05076 1.01016,13.13198 0,8.08122 -0.38853,13.13199 -1.01016,13.13199 -0.62163,0 -1.01015,-5.05077 -1.01015,-13.13199 z"
       id="path4320"
       inkscape:connector-curvature="0"
       transform="translate(52.459693,377.07891)" />
    <path
       style="fill:#000000;fill-opacity:1;stroke:#29235c;stroke-width:1.01015258;stroke-opacity:1"
       d="m 634.42599,285.0706 c -1.22015,-1.22015 -1.58738,-3.80613 -1.58738,-11.17808 0,-11.45055 0.82954,-13.4985 5.46769,-13.4985 4.08916,0 5.9195,1.94512 5.40814,5.74729 l -0.38183,2.83901 -0.85685,-3.03046 c -1.29908,-4.59451 -3.37482,-5.61295 -6.02947,-2.95831 -1.1895,1.18951 -1.58738,3.70076 -1.58738,10.01891 0,10.30332 0.45209,11.62722 3.97053,11.62722 2.30911,0 2.9124,-0.60063 3.80488,-3.78807 l 1.06066,-3.78807 0.12765,3.58604 c 0.0702,1.97232 -0.41783,4.13152 -1.08453,4.79822 -1.71627,1.71628 -6.43357,1.50334 -8.31211,-0.3752 z"
       id="path4322"
       inkscape:connector-curvature="0"
       transform="translate(52.459693,377.07891)" />
    <path
       style="fill:#000000;fill-opacity:1;stroke:#29235c;stroke-width:1.01015258;stroke-opacity:1"
       d="m 652.56153,274.28362 c 1.1504,-6.97959 2.06415,-7.3618 3.15902,-1.32138 1.00506,5.54499 0.98742,5.61452 -1.42448,5.61452 -2.31068,0 -2.40405,-0.23111 -1.73454,-4.29314 z"
       id="path4324"
       inkscape:connector-curvature="0"
       transform="translate(52.459693,377.07891)" />
    <path
       style="fill:#000000;fill-opacity:1;stroke:#29235c;stroke-width:1.01015258;stroke-opacity:1"
       d=""
       id="path4326"
       inkscape:connector-curvature="0"
       transform="translate(52.459693,377.07891)" />
    <path
       style="fill:#000000;fill-opacity:1;stroke:#29235c;stroke-width:1.01015258;stroke-opacity:1"
       d=""
       id="path4328"
       inkscape:connector-curvature="0"
       transform="translate(52.459693,377.07891)" />
    <path
       style="fill:#000000;fill-opacity:1;stroke:#29235c;stroke-width:1.01015258;stroke-opacity:1"
       d="m 652.28404,281.92105 c 0.97227,-0.25408 2.56326,-0.25408 3.53554,0 0.97227,0.25408 0.17677,0.46197 -1.76777,0.46197 -1.94454,0 -2.74004,-0.20789 -1.76777,-0.46197 z"
       id="path4330"
       inkscape:connector-curvature="0"
       transform="translate(52.459693,377.07891)" />
    <path
       style="fill:#000000;fill-opacity:1;stroke:#29235c;stroke-width:1.01015258;stroke-opacity:1"
       d="m 647.98775,285.45491 c -0.002,-0.72727 0.98714,-6.66349 2.19749,-13.1916 1.81963,-9.8143 2.50796,-11.86929 3.97568,-11.86929 2.09897,0 2.21755,0.35016 4.89193,14.44595 2.40459,12.67378 2.31991,11.81802 1.16938,11.81802 -0.49535,0 -1.17826,-1.10613 -1.51757,-2.45806 -1.05766,-4.21403 -8.69346,-4.70936 -8.69346,-0.56395 0,1.04094 -0.45457,2.17356 -1.01015,2.51693 -0.55559,0.34337 -1.01157,0.0293 -1.0133,-0.698 z m 8.47328,-13.1916 c -0.76818,-4.02798 -1.39722,-7.75544 -1.39788,-8.28325 -0.003,-2.79938 -1.88113,1.70847 -2.88927,6.9365 -1.64751,8.54376 -1.61443,8.67036 2.26565,8.67036 l 3.41818,0 -1.39668,-7.32361 z"
       id="path4332"
       inkscape:connector-curvature="0"
       transform="translate(52.459693,377.07891)" />
  </g>
</svg>
